<svg xmlns="http://www.w3.org/2000/svg" data-name="Layer 1" viewBox="0 0 128 128"><path d="M29 62H27a.87.87 0 0 0-1 1v2a.87.87 0 0 0 1 1h2a.88.88 0 0 0 1-1V63A.88.88 0 0 0 29 62zM74.09 64.81V62.39q0-1.19-1-1.19H67.29V55.41H72q1 0 1-1.19V51.78q0-1.19-1-1.19H67.29V44.8H73q1 0 1-1.18V41.19Q74 40 73 40H64.11q-1 0-1 1.19V61.43a4.71 4.71 0 0 0 1.18 3.23A3.66 3.66 0 0 0 67.09 66h6Q74.09 66 74.09 64.81zM52 40H50q-1 0-1 1.19V53.64L44.68 40.76a1 1 0 0 0-1-.76H41q-1 0-1 1.19V64.81Q40 66 41 66h2.06q1 0 1-1.19V52.38l4.25 12.86a.94.94 0 0 0 .94.74h0L52 66q1 0 1-1.18V41.19Q53 40 52 40zM95 40H85q-1 0-1 1.19v2.43q0 1.18 1 1.18h3v20Q88 66 89 66h2q1 0 1-1.19v-20h3q1 0 1-1.18V41.19Q96 40 95 40z"/><path d="M64,0A64,64,0,1,0,89.83,122.56l-2-3.49a60.21,60.21,0,1,1,19.61-13.71l2.6,3.11A64,64,0,0,0,64,0Z"/><path d="M98.34,128a2,2,0,0,0,.41,0,2,2,0,0,0,1.18-.38l11.25-8.18a2,2,0,0,0,.8-1.37,2,2,0,0,0-.44-1.53l-16.7-20,4.58-3.4a2,2,0,0,0-.17-3.33L73,74.28a2,2,0,0,0-3,2.13l6.45,30.46a2,2,0,0,0,1.25,1.45,2,2,0,0,0,1.9-.26l4.48-3.33L97,127A2,2,0,0,0,98.34,128ZM85.13,99.84a1.83,1.83,0,0,0-.4,0,2,2,0,0,0-1.19.4L79.76,103,74.9,80,94.62,91.71l-3.86,2.87A2,2,0,0,0,90,96a1.94,1.94,0,0,0,.45,1.51l16.67,20-7.72,5.62L86.46,100.79A2,2,0,0,0,85.13,99.84Z"/><path d="M101.81,96.34l-1.18.88,2.29,2.74a52.85,52.85,0,1,0-18.65,13l-1.36-2.36-.89.65a6,6,0,0,1-9.44-3.57L66.13,77.24A6,6,0,0,1,72,70H67.09a7.62,7.62,0,0,1-5.85-2.7,8.77,8.77,0,0,1-2.17-5.87V41.19a5,5,0,0,1,5-5.19H73a5,5,0,0,1,5,5.19v2.43a5.07,5.07,0,0,1-2.35,4.45,5.26,5.26,0,0,1,1.41,3.71v2.44a5.27,5.27,0,0,1-1.38,3.68,5.07,5.07,0,0,1,2.4,4.49v2.42A5,5,0,0,1,73,70H72a6,6,0,0,1,3.06.84l26.23,15.52a6,6,0,0,1,.52,10ZM34,65a4.83,4.83,0,0,1-5,5H27a4.82,4.82,0,0,1-5-5V63a4.82,4.82,0,0,1,5-5h2a4.83,4.83,0,0,1,5,5Zm23-.22A4.92,4.92,0,0,1,52,70H49.29a4.87,4.87,0,0,1-3-1A5,5,0,0,1,43.08,70H41a4.94,4.94,0,0,1-5-5.19V41.19A4.94,4.94,0,0,1,41,36h2.7a4.87,4.87,0,0,1,3.08,1.06A5.06,5.06,0,0,1,50,36h2a4.94,4.94,0,0,1,5,5.19Zm43-21.17a4.94,4.94,0,0,1-4,5.09v16.1A4.93,4.93,0,0,1,91,70H89a4.93,4.93,0,0,1-5-5.19V48.71a4.94,4.94,0,0,1-4-5.09V41.19A4.93,4.93,0,0,1,85,36H95a4.93,4.93,0,0,1,5,5.19Z"/></svg>