<svg xmlns="http://www.w3.org/2000/svg" data-name="Layer 1" viewBox="0 0 700 550"><path d="M325.24,442.73175c-1.41-4.62988-2.83-9.25-4.18-13.88989s-2.67-9.29-3.94-13.94995c-1.28-4.66993-2.49-9.3501-3.66-14.04l-.56-2.23a12.17005,12.17005,0,0,1-1.37,1.12011l.47,1.52c1.44,4.61988,2.85,9.23975,4.19,13.8899q2.025,6.95983,3.91,13.96c1.19,4.33008,2.3,8.68994,3.42,13.04-6.18-.13013-12.36005-.33008-18.54-.40992l-9.77-.16015-9.76-.08985-19.53-.15014-9.76-.01-8.47.06006c-.63-4.10987-1.34-8.21-2.02-12.34009l-2.35-13.73L238.29,387.202l8.8.56982,4.31994.24023,4.42005.19q8.82.36,17.66.54c5.89.1399,11.78.15992,17.67.16993,1.08-.01,2.16-.02,3.23-.03a7.55175,7.55175,0,0,1,.61-2.7l-3.86.03-17.64.12989-17.65.19018-4.42.06983-4.5.1101-8.86.2898,3.18,27.7102,1.76,14.17994c.61,4.75,1.19,9.51,1.87,14.26l.19,1.3,1.32.01,9.77.07984,9.76-.00977,19.53-.16015,9.76-.08985,9.77-.16015c6.51-.08008,13.02-.3,19.53-.42993l1.02-.02Z"/><path d="M296.8,415.86188c-2.7-1.32984-5.23,1.34009-7.94-.27-1.75-1.05-2.32-3.12989-2.73-4.65991-1.3-4.76,1.12-7.39991-.41-9.03-1.46-1.54-5.43-1.06006-7.8.82006-2.88,2.27979-2.04,5.5-4.52,6.56983-1.2.52-2.22.13013-6.05-1.24-8.78-3.12988-9.52-3.26978-9.96-2.85986-1.87,1.7.86,9.03,4.65,13.63989,2.12,2.58008-6.45,4.87012-6.3,6.89013.17,2.23,4.34,4.66993,7.94,4.09986,5.42-.84986,8.09-8.24,9.31-7.65991,1.1.51-2.11,6.03.27,10.3999,1.62,2.96,5.51,4.88013,7.39,3.83008,1.32-.73,1.45-2.8,1.65-6.84009.26-5.32984-.56-8.46.27-8.76.73-.27,1.51,2.14014,3.83,3.83008,3.93,2.85986,11.27,2.92993,13.14-.55C300.89,421.56183,299.43,417.16193,296.8,415.86188Zm-20.25,2.73c-3.87,0-3.86-6,0-6S280.41,418.59186,276.55,418.59186Z"/><path d="M272.42661 409.88987a21.42524 21.42524 0 01-1.57086-4.23462 18.26958 18.26958 0 01-.61163-4.41088 12.3222 12.3222 0 01.78613-4.35108 10.28272 10.28272 0 012.4693-3.54175 9.98721 9.98721 0 00-1.92749 3.71973 11.4712 11.4712 0 00-.18988 4.0979 16.854 16.854 0 001.09888 3.9519A19.60925 19.60925 0 00274.371 408.697zM377.85 294.00177c-13.6 20.61011-26.24 42.72021-28.56 46.80005a81.91994 81.91994 0 01-4.06-16.05s-.08.14014-.23.40015a20.74449 20.74449 0 01-.28-2.34009c-.11-1.17993-.15-2.36987-.15-3.54981a69.8848 69.8848 0 01.4-7.09008 44.61031 44.61031 0 00.22-7.22 21.79165 21.79165 0 00-1.36-7.06006 19.998 19.998 0 01.49 3.53 35.08136 35.08136 0 01.11 3.55q-.06 3.55482-.45 7.08985a42.50166 42.50166 0 00-.18 7.22021 24.46948 24.46948 0 001.07 6.06983 95.59453 95.59453 0 01-11.91 15.27 55.25754 55.25754 0 01-13.62 10.3999c-9 4.92017-24.64 13.47021-28.06006 15.3501a15.20894 15.20894 0 00.42-3.65992c0-4.48022 2.62-9.82006 3.81-14.08007v-.01l6.29 1.17993c4.01.02 8.03.05 12.07-.28-3.76-1.48-7.51-2.82983-11.25-4.21l-6.63-1.24a3.2769 3.2769 0 00-1.54-2.24c-3.1-1.90991-5.36-1.90991-6.9.6499l-2.44-.46973c-1.63-8.07006-5.07-10.77-7.45-11.66015a5.82314 5.82314 0 00-2.52-.41992s.03-.02.08-.06006c1.46-1.14014 23.73-18.64991 35.88-37.46 12.57-19.47 25.34-31.43018 38.92-31.74 0 0 14.08-.1001 20.97.5C372.98 264.492 375.8 285.35187 377.85 294.00177zM380.25 371.73175a8.25167 8.25167 0 00.86.2002H362.88zM396.51 268.17194c.5-2.92994.98-6.12012 1.43-9.6001 0 0 3.87-.65991 9.79-1.26C404.65 259.15192 400.78 263.032 396.51 268.17194zM477.15 371.93195h-92.4c12.97-2.4502 28.65-29.08008 41.37-55.84009a55.03057 55.03057 0 00.6 6.53c.3 2.18994.85 4.34008 1.26 6.46a63.44894 63.44894 0 01.79 6.45019 43.92456 43.92456 0 01-.07 6.48975 27.197 27.197 0 01-1.22 6.32007l-.01.03-.01.05a31.55413 31.55413 0 00-.27 5.57006 33.97466 33.97466 0 00.66 5.50977 24.40666 24.40666 0 001.71 5.27 21.26863 21.26863 0 002.9 4.68018 23.08143 23.08143 0 01-2.62-4.8 26.74722 26.74722 0 01-1.46-5.25 33.37662 33.37662 0 01-.08-10.8c-.01.02-.01.03-.02.05l.02-.08008a28.415 28.415 0 001.32-6.46 46.0102 46.0102 0 00.13-6.6399 51.75513 51.75513 0 00-.84-6.57006c-.44-2.17994-.99-4.28-1.31-6.42017a69.43881 69.43881 0 01-.77-7.90991c13.14-27.8999 22.93-55.47 22.93-55.47 6.87 1.93017 12.58 5.09009 15.63 10.08008a33.31616 33.31616 0 001.89 2.79C471.81 277.84186 485.75 295.31183 477.15 371.93195z"/><path d="M377.66886,294.19773c-.915-3.2622-1.59277-6.57934-2.31784-9.88085l-2.01678-9.9264-1.06266-4.937c-.3616-1.63757-.732-3.27942-1.19256-4.85852-.11377-.39551-.22363-.79516-.36371-1.1615a6.74391,6.74391,0,0,0-.42-1.04492,8.13209,8.13209,0,0,0-1.309-1.84314,7.73808,7.73808,0,0,0-1.729-1.4126,6.27858,6.27858,0,0,0-.98288-.465,4.343,4.343,0,0,0-.93756-.23938l.502-.09864a15.31765,15.31765,0,0,1-3.79111,1.16773,11.8306,11.8306,0,0,1-4.02341.014,7.67848,7.67848,0,0,1-3.76617-1.76441,14.27476,14.27476,0,0,1-2.489-3.06726,49.9094,49.9094,0,0,1-3.40417-6.69262c-.9845-2.28235-1.87463-4.585-2.68411-6.93641l.58145.38416a5.99656,5.99656,0,0,1-2.90225-.52344,2.85161,2.85161,0,0,1-1.174-1.09582,3.39834,3.39834,0,0,1-.4281-1.49414,7.44945,7.44945,0,0,1,.46152-2.81568,13.7675,13.7675,0,0,1,1.16144-2.52832,7.65527,7.65527,0,0,0,1.33411-4.88965,6.70089,6.70089,0,0,0-.71277-2.45385c-.41074-.75769-.87741-1.57776-1.25238-2.402a15.684,15.684,0,0,1-.95777-2.5763,24.94126,24.94126,0,0,1-.65841-2.65417c-.21082-.88977-.28321-1.80237-.428-2.70544-.0661-.91126-.16083-1.82361-.146-2.74061a26.53425,26.53425,0,0,1,.51984-5.4746,22.22879,22.22879,0,0,1,1.72806-5.30481.704.704,0,0,1,1.26678.00317l.03519.07312a45.52963,45.52963,0,0,0,5.61282,8.76416,35.77747,35.77747,0,0,0,7.55948,7.02319,24.89046,24.89046,0,0,0,4.48447,2.44434,22.13049,22.13049,0,0,0,4.85586,1.46216,25.8084,25.8084,0,0,0,10.09952-.24219l.06564-.01331a1.13361,1.13361,0,0,1,1.10172.39417,9.51915,9.51915,0,0,1,1.07181,1.64368,14.57175,14.57175,0,0,1,.76394,1.64941,21.96143,21.96143,0,0,1,1.03885,3.40771,31.24319,31.24319,0,0,1,.61936,6.95874,42.23761,42.23761,0,0,1-.67994,6.864c-.20913,1.15906-.338,2.17724-.50479,3.25671a15.26407,15.26407,0,0,0-.10431,1.60315,10.50022,10.50022,0,0,0-.01178,1.60022,13.87641,13.87641,0,0,0,1.51,6.06507,10.33633,10.33633,0,0,0,4.28958,4.35852,12.08134,12.08134,0,0,0,6.16062,1.322,21.74037,21.74037,0,0,0,6.37829-1.38184l.04074-.01477a.39034.39034,0,0,1,.51743.43652c-.46576,2.56629-.92273,5.13123-1.41638,7.68641a.11415.11415,0,0,1-.13361.09045.11911.11911,0,0,1-.0914-.12793c.25968-2.59131.556-5.173.8436-7.7533l.558.42151a20.71364,20.71364,0,0,1-6.62634,1.84156,13.449,13.449,0,0,1-6.914-1.14527,11.48686,11.48686,0,0,1-5.192-4.86377,15.77514,15.77514,0,0,1-1.935-6.81958,12.0488,12.0488,0,0,1-.04239-1.76062,17.1992,17.1992,0,0,1,.06174-1.75574c.13571-1.14379.264-2.35546.42089-3.41076a46.00481,46.00481,0,0,0,.52439-6.53064,28.87037,28.87037,0,0,0-.65641-6.416,20.31274,20.31274,0,0,0-.918-3.0249,12.2001,12.2001,0,0,0-.64557-1.4043,7.88022,7.88022,0,0,0-.74555-1.18237l1.167.38074a26.895,26.895,0,0,1-11.05625.12744,24.38752,24.38752,0,0,1-5.29468-1.69275,27.05354,27.05354,0,0,1-4.8085-2.72717,35.60666,35.60666,0,0,1-7.81088-7.6189,42.52165,42.52165,0,0,1-5.49725-9.35681l1.30178.07629a23.46338,23.46338,0,0,0-2.51245,10.08033,22.88829,22.88829,0,0,0,.38855,5.27832,24.1411,24.1411,0,0,0,.60236,2.58764,14.91715,14.91715,0,0,0,.88315,2.48706c.35931.81848.77365,1.56873,1.20721,2.39771a7.99735,7.99735,0,0,1,.76291,2.70312,8.37816,8.37816,0,0,1-1.38324,5.34143,9.66424,9.66424,0,0,0-1.35907,4.88184,1.991,1.991,0,0,0,1.16357,1.7406,4.97652,4.97652,0,0,0,2.37217.283.5653.5653,0,0,1,.56921.35266l.01251.03174c.904,2.26135,1.90238,4.50659,2.97061,6.69629a48.32049,48.32049,0,0,0,3.58091,6.29614,12.66733,12.66733,0,0,0,2.19964,2.59717,6.10482,6.10482,0,0,0,2.85678,1.27185,12.16254,12.16254,0,0,0,6.57383-1.00061l.08737-.037a.84451.84451,0,0,1,.415-.06164,5.896,5.896,0,0,1,1.51153.37744,8.25763,8.25763,0,0,1,1.296.63171,9.69857,9.69857,0,0,1,2.15994,1.80261,9.53,9.53,0,0,1,1.57508,2.29627,8.40506,8.40506,0,0,1,.496,1.31213c.14877.42786.25177.84546.36087,1.26441.86386,3.34484,1.40384,6.67346,1.94666,10.01892l1.5386,10.02026c.46878,3.345.97525,6.67944,1.54312,10.00708a.114.114,0,0,1-.09167.13281A.11608.11608,0,0,1,377.66886,294.19773Z"/><path d="M343.89494 241.72691c-.245 1.81189-.45768 3.61658-.66059 5.41638-.189 1.80115-.35437 3.60071-.41208 5.39868a28.83651 28.83651 0 00.22684 5.353 10.61686 10.61686 0 00.69641 2.55359 5.03969 5.03969 0 001.57874 2.12549 4.75335 4.75335 0 01-1.98187-1.91992 9.38456 9.38456 0 01-.99982-2.61915 21.52982 21.52982 0 01-.4422-5.52575A39.13858 39.13858 0 01343.89494 241.72691zM343.34568 203.33519a3.50245 3.50245 0 01-.31766-2.72974l.18506-.681.29169-.63147c.10059-.20947.19586-.42554.30884-.62805l.38931-.5697a15.346 15.346 0 011.74915-2.12452c.653-.634 1.34817-1.21862 2.02981-1.82592a55.75424 55.75424 0 019.19876-5.64612c1.61743-.7677 3.2525-1.50208 4.88715-2.23218 1.653-.67859 3.31637-1.33374 4.98334-1.97791 1.67108-.61169 3.36755-1.13977 5.05477-1.70019.85364-.25684 1.67646-.54834 2.589-.80054a26.06732 26.06732 0 012.68555-.57129 26.71043 26.71043 0 0110.80094.43982 22.53629 22.53629 0 019.48117 5.0232 29.7313 29.7313 0 016.50012 8.61157 46.2077 46.2077 0 013.72113 10.15722l.01654.09522a52.348 52.348 0 004.59692 13.91833 47.073 47.073 0 003.71579 6.30994c.66965 1.02161 1.442 1.96094 2.19541 2.91809.76629.94458 1.62426 1.80933 2.45245 2.69885l2.71234 2.51221 1.42182 1.3241c.48495.42822.88043.95325 1.32348 1.425a25.4703 25.4703 0 014.26676 6.4729 22.443 22.443 0 011.59027 15.00573.1137.1137 0 01-.2226-.04443l.0018-.01282a21.91228 21.91228 0 00-.293-7.37927 23.07847 23.07847 0 00-2.50467-6.85242 13.9029 13.9029 0 00-.9335-1.562c-.343-.501-.65243-1.02246-1.01922-1.505a27.994 27.994 0 00-2.37915-2.74829c-.43308-.42493-.81269-.8993-1.28684-1.28357l-1.38129-1.18885-2.8977-2.50891a41.771 41.771 0 01-8.91156-12.54931 54.29517 54.29517 0 01-2.73206-7.18238 46.91546 46.91546 0 01-1.67822-7.52526l.01645.09484a53.21948 53.21948 0 00-3.031-9.99939 26.44413 26.44413 0 00-5.79034-8.62463 20.89235 20.89235 0 00-4.22946-3.05579 18.821 18.821 0 00-4.90143-1.78308 23.634 23.634 0 00-10.33652.2461 24.49564 24.49564 0 00-2.47967.713c-.78253.27551-1.61325.63391-2.44022.94836l-4.9812 1.8639c-1.63544.65881-3.27447 1.30651-4.92389 1.93078l-4.84854 2.08423a68.40355 68.40355 0 00-9.2095 5.0116c-.68555.52246-1.396 1.02868-2.06156 1.57885a16.09124 16.09124 0 00-1.81372 1.82032l-.41473.49133c-.12049.17334-.21991.35815-.3353.53589l-.33542.54223-.233.583a3.25366 3.25366 0 00-.0567 2.43567l.01092.02381a.11266.11266 0 01-.19714.10791zM346.167 225.37181a21.92979 21.92979 0 015.11942-2.73487 19.35226 19.35226 0 012.796-.83935 7.21217 7.21217 0 012.93078-.13489 18.21833 18.21833 0 00-2.734.82776l-2.66391 1.00842C349.83131 224.168 348.05274 224.85972 346.167 225.37181zM351.15759 231.74694a1.3854 1.3854 0 000-2.76914 1.3854 1.3854 0 000 2.76914zM348.92451 248.52085a19.515 19.515 0 004.08133-.32653c.65936-.12854 1.31735-.27576 1.97711-.45655.66415-.17163 1.31952-.386 2.03021-.55127a7.66864 7.66864 0 01-3.83929 1.91492 7.7795 7.7795 0 01-2.18277.079A4.86817 4.86817 0 01348.92451 248.52085z"/><path fill="#fff" d="M428.3,348.57184v.03c-.01.02-.01.03-.02.05Z"/><path d="M375.47843,297.62571a69.39768,69.39768,0,0,1,4.57135-8.81006c1.67954-2.8374,3.508-5.57446,5.42453-8.24853,1.92331-2.66919,3.93976-5.27332,6.10636-7.76343a59.4491,59.4491,0,0,1,6.99661-7.05371c-1.60785,2.92542-3.33243,5.71191-5.12482,8.45972-1.7738,2.75854-3.63275,5.45166-5.5437,8.10888-1.91626,2.65357-3.87982,5.27369-5.94342,7.82715C379.917,292.71116,377.80448,295.23021,375.47843,297.62571Z"/><path fill="#fff" d="M449.76,259.10187c-13.39-3.78-31.16-2.8899-42.03-1.79a9.37387,9.37387,0,0,1,2.08-.95S440.85,250.8819,449.76,259.10187Z"/><path d="M449.89091 259.17515a10.99628 10.99628 0 00-1.269-.07934 13.917 13.917 0 01-1.54007-.141c-.87711-.08557-1.75214-.15918-2.61661-.269-.87351-.06958-1.74515-.134-2.60953-.229-.86926-.07117-1.74249-.10559-2.60681-.19336l-5.21375-.30774c-1.74038-.06677-3.47833-.17139-5.22186-.2937-3.48294-.24719-6.99927-.675-10.518-.62915a63.78574 63.78574 0 00-10.48606 1.06115l-3.52041.62757 3.03952-2.08557a10.1988 10.1988 0 012.20886-1.193l.10626-.025a79.81674 79.81674 0 0110.19061-1.79871c1.71235-.21057 3.43247-.36645 5.15735-.4989 1.72672-.08215 3.45951-.17712 5.19605-.12366a49.26861 49.26861 0 0110.39615 1.18152A25.17712 25.17712 0 01445.6 255.87547a15.8444 15.8444 0 012.30246 1.34192c.36618.24841.70026.552 1.04444.82165a3.27293 3.27293 0 01.54529.58545C449.65376 258.84751 449.76356 259.03477 449.89091 259.17515zm-.26181-.14648a2.23609 2.23609 0 00-.594-.25721 2.09554 2.09554 0 01-.46344-.20031c-.38186-.17737-.73932-.38074-1.12744-.53028a21.78088 21.78088 0 00-2.35791-.76391 32.16062 32.16062 0 00-4.89245-.82361 84.21264 84.21264 0 00-10.00321-.29932c-3.35214.07813-6.71948.18445-10.09366.37525-3.36895.206-6.75564.51416-10.12027.77649l.1059-.025a8.27606 8.27606 0 00-1.95081.70679l-.48086-1.45789c3.54831-.083 7.07519-.2052 10.59942-.48584 3.522-.272 7.05707-.8114 10.62064-.8988.89-.01392 1.78113-.047 2.67093.009.89041.03492 1.78079.05555 2.66846.15808.88809.08863 1.77664.15149 2.66311.2616.88459.13013 1.769.24463 2.65039.39148a52.70118 52.70118 0 015.235 1.16174c.86044.25025 1.71033.53675 2.55814.81116a11.12174 11.12174 0 011.0205.51441A8.0618 8.0618 0 00449.6291 259.02867zM349.66822 344.75682c1.74213.42529 3.39966.8186 5.05719 1.16162 1.66077.3208 3.30478.58325 4.9534.75049.82333.11181 1.649.12744 2.47736.19653.82516-.00317 1.66134.06592 2.49533.02588 1.68667.01343 3.34967-.22 5.15878-.32422a13.31812 13.31812 0 01-4.94888 2.092 16.31021 16.31021 0 01-5.41928.27783 18.49567 18.49567 0 01-5.23844-1.324A14.36974 14.36974 0 01349.66822 344.75682zM391.98216 347.95018c1.74212.42529 3.39965.8186 5.05719 1.16162 1.66076.3208 3.30477.58325 4.9534.75049.82333.11181 1.649.12744 2.47735.19653.82517-.00318 1.66135.06592 2.49533.02588 1.68668.01343 3.34967-.22 5.15882-.32422a13.31858 13.31858 0 01-4.94892 2.092 16.31021 16.31021 0 01-5.41928.27783 18.49551 18.49551 0 01-5.23843-1.324A14.3698 14.3698 0 01391.98216 347.95018zM250.83 369.952a15.65275 15.65275 0 012.35 4.27h-.49q-24.33-.015-48.65-.47021c-16.22-.32983-32.44-.73-48.66-1.41992a.1948.1948 0 01-.19-.21.20412.20412 0 01.19-.18994c16.22-.71 32.43-1.12012 48.65-1.46Q227.43 370.0069 250.83 369.952zM302.2 370.202a19.8199 19.8199 0 00-1.82 3.65991q-7.845.09009-15.68.15991a10.03868 10.03868 0 004.94-3.91992Q295.925 370.14691 302.2 370.202zM544.81 371.742a.18392.18392 0 01-.19.18995c-16.21.72-32.43 1.1499-48.65 1.3999l-12.16.16015-6.51.04981-5.66.04c-4.05.03-8.11.06006-12.16.04q-6.09.015-12.17-.07007c-7.89-.10986-15.78-.2898-23.67-.47-8.32-.18994-16.65-.36988-24.98-.48-16.22-.16992-32.44-.02-48.66.3601q-10.905.28492-21.81.48c-2.13-.92994-4.54-1.97-6.94-3.01q14.37.19482 28.75.54 24.33.52479 48.66.25c16.21-.25 32.43006-.8 48.65-1.07006q6.075-.09009 12.16-.1001c4.06-.03 8.11005-.01 12.17.01l12.16.06006 12.17.14013c16.21.21 32.43005.58985 48.65 1.27A.20029.20029 0 01544.81 371.742z"/><path d="M432.47489,372.2451c-6.58429.93628-13.19864,1.68823-19.811,2.36694q-9.926.96974-19.85962,1.83862c-6.62149.59253-13.25134,1.07154-19.87805,1.59082-6.629.492-13.25339,1.03345-19.88892,1.45044l-.00842.00049a1.01144,1.01144,0,0,1-.17243-.00464L335.036,377.395l-.01459-.00171a.87766.87766,0,0,1-.25406-.07031c-7.04608-3.1814-14.08563-6.37891-21.15844-9.48731-1.76545-.76684-3.548-1.56079-5.3097-2.25195-.55273-.35669-1.4049.2356-2.12811.75317a13.57276,13.57276,0,0,0-2.01495,1.938A19.26693,19.26693,0,0,0,299.67869,378.52a.40732.40732,0,0,1-.06128.1748c-.82068,1.25147-1.62518,2.51343-2.377,3.80152a27.15281,27.15281,0,0,0-1.98249,3.97339,5.07353,5.07353,0,0,0-.13006,4.10229,42.77976,42.77976,0,0,1,2.175,3.9585.40154.40154,0,0,1,.01391.241l-.00128.00489a9.90785,9.90785,0,0,0-.2771,2.75561,6.36374,6.36374,0,0,0,.63831,2.627,4.0965,4.0965,0,0,0,1.84369,1.84594,5.5963,5.5963,0,0,0,1.25274.49292c.43848.117.90491.15625,1.35559.2356l-.085.00073a24.544,24.544,0,0,0,3.73645-.84668,21.08011,21.08011,0,0,0,3.5409-1.43286,13.80173,13.80173,0,0,0,1.62188-.97168c.52191-.34985.96686-.78857,1.45508-1.17456a8.20053,8.20053,0,0,0,2.082-2.97681.60254.60254,0,0,1,1.13263.0376l.01471.0459a13.069,13.069,0,0,0,6.41534,7.60644,16.37415,16.37415,0,0,0,10.04374,1.07862c3.38089-.70117,6.90576-1.75195,10.33557-2.707,3.41955-1,6.94168-1.98658,10.14-3.24024l.022-.00854a1.08555,1.08555,0,0,1,.505-.06763c12.37909,1.32959,24.79556,2.4458,37.20828,3.46167,12.4104,1.05884,24.83637,1.9436,37.26782,2.49146,6.21381.29931,12.43195.509,18.64209.501,3.1045-.00659,6.20716-.06933,9.29746-.23779a69.909,69.909,0,0,0,9.16766-1.011,14.60241,14.60241,0,0,0,4.19965-1.37182,4.53576,4.53576,0,0,0,.80545-.57569l.74808-.83935a13.90233,13.90233,0,0,0,1.38775-1.77857,27.19772,27.19772,0,0,0,3.6933-8.32983,55.95918,55.95918,0,0,0,1.53015-18.44141.11421.11421,0,0,1,.10059-.12622.11856.11856,0,0,1,.12594.09937,58.92579,58.92579,0,0,1,.38016,9.36963,50.01905,50.01905,0,0,1-1.17166,9.34448,27.87756,27.87756,0,0,1-3.6,8.78955,15.12148,15.12148,0,0,1-1.43017,1.94385l-.7833.927a5.845,5.845,0,0,1-1.06189.82031,15.8633,15.8633,0,0,1-4.59909,1.6709,64.29906,64.29906,0,0,1-9.37838,1.27124c-3.13157.22534-6.26252.34277-9.39142.40381-6.258.1167-12.50824.01416-18.75214-.17822-12.48538-.45948-24.93994-1.33179-37.37918-2.33643q-18.65346-1.611-37.24506-3.79736l.52661-.07617c-1.76855.7041-3.48333,1.21167-5.22589,1.72583-1.73666.5061-3.47543.98437-5.21643,1.45141l-5.2297,1.36255c-1.72568.45679-3.521.85132-5.34168,1.20874a17.75319,17.75319,0,0,1-11.00357-1.4812,14.416,14.416,0,0,1-6.90784-8.6294l1.14722.0835a9.36494,9.36494,0,0,1-2.4364,3.33814c-.54059.415-1.04681.883-1.61737,1.2478a14.88727,14.88727,0,0,1-1.757,1,22.06,22.06,0,0,1-3.74029,1.41821,25.36154,25.36154,0,0,1-3.91242.793l-.026.00293a.1933.1933,0,0,1-.05945-.0022c-.49859-.09717-1.00445-.14038-1.49634-.27734a6.43774,6.43774,0,0,1-1.43255-.57764,4.92079,4.92079,0,0,1-2.16425-2.20752,7.15047,7.15047,0,0,1-.703-2.96582,10.61693,10.61693,0,0,1,.32953-2.99414l.01257.24512a13.27682,13.27682,0,0,0-.98468-1.95386,20.84021,20.84021,0,0,1-1.14288-1.98779,4.7093,4.7093,0,0,1-.41687-2.36719,8.46327,8.46327,0,0,1,.56232-2.27417,28.666,28.666,0,0,1,1.99194-4.09888c.7475-1.31372,1.54394-2.5935,2.35571-3.86181l-.06109.17431a20.1063,20.1063,0,0,1,4.55847-10.75317,14.82231,14.82231,0,0,1,2.10272-2.13037,7.1369,7.1369,0,0,1,1.30713-.85669,2.80669,2.80669,0,0,1,.84588-.26807,1.5917,1.5917,0,0,1,.5503.01905c.14032.04028.27966.083.39093.12353,1.85711.66943,3.62811,1.40235,5.42956,2.12549,7.17108,2.91235,14.29334,5.92725,21.42609,8.91748l-.26828-.072,17.83914,1.92724-.18045-.00415,39.77976-2.62744q9.94761-.62328,19.88909-1.32275l9.94281-.68457,9.93058-.81836a.11422.11422,0,0,1,.127.09961A.11865.11865,0,0,1,432.47489,372.2451Z"/><path d="M307.22324 393.10838a9.03949 9.03949 0 012.20667-1.68506 3.97224 3.97224 0 012.78748-.48877 3.83532 3.83532 0 012.23828 1.85523c.22546.42578.42889.86743.61358 1.312l.4267 1.36743a.46615.46615 0 11-.88995.27783c-.00379-.01245-.00715-.02466-.00989-.03711l-.01087-.04883-.28949-1.30468c-.13464-.41675-.28552-.83277-.45452-1.23536a3.26626 3.26626 0 00-1.75336-1.7395 3.62656 3.62656 0 00-2.55792.252A8.92106 8.92106 0 00307.22324 393.10838zM296.5767 394.39256a64.55907 64.55907 0 004.05182-5.74634 32.23286 32.23286 0 001.70776-3.07593 10.51413 10.51413 0 001.09-3.33374 10.62212 10.62212 0 01-.87671 3.42676 32.57779 32.57779 0 01-1.51764 3.21484 65.2369 65.2369 0 01-3.71057 6.07276.46573.46573 0 01-.76831-.52661l.01733-.02368zM294.54978 390.80345l8.87647-14.90137-8.06446 15.356a.46548.46548 0 01-.82421-.43286zM298.89665 378.22386l5.86969-8.12085-5.091 8.63037a.46583.46583 0 11-.80243-.47339C298.88023 378.24778 298.88847 378.23533 298.89665 378.22386zM277.61112 330.45506a3.7875 3.7875 0 00-1.77765-.32959 12.43256 12.43256 0 00-1.82751.14062 6.83317 6.83317 0 00-3.17322 1.53052 8.19609 8.19609 0 00-2.01929 2.85816 11.04718 11.04718 0 00-.87072 3.41479.70549.70549 0 01-1.38776.1084l-.00531-.02246a26.1302 26.1302 0 00-2.25421-6.082 11.64477 11.64477 0 00-4.09418-4.57935 6.46383 6.46383 0 00-1.3222-.61987 3.27559 3.27559 0 00-.64167-.15845l-.79095-.10034a8.29721 8.29721 0 00-3.00281.14551 6.0331 6.0331 0 00-4.23108 3.4873l-.03955.09107a.98269.98269 0 01-1.29272.50976 1.02764 1.02764 0 01-.194-.1123 3.125 3.125 0 00-1.78815-.62915 5.4025 5.4025 0 00-2.07757.41308 5.96846 5.96846 0 00-3.29493 2.8291l-.04113.07886-.0741.167-.10651.25733a5.01639 5.01639 0 00-.16021.512 3.56306 3.56306 0 00-.11225 1.02344 3.072 3.072 0 00.76819 1.86767 8.16963 8.16963 0 003.96307 2.24561l.0398.011a.43094.43094 0 01.24048.17065 20.82575 20.82575 0 011.658 2.99c.24273.50391.47449 1.00244.7492 1.46753.28248.4917.56507.98267.81031 1.50317a6.52269 6.52269 0 01.58947 1.67554 1.05442 1.05442 0 01-1.33441 1.345 10.68292 10.68292 0 01-3.19671-1.35571c-.98389-.5669-1.92249-1.16919-2.8631-1.81421a16.58635 16.58635 0 01-2.54395-2.3147c-.38611-.41211-.7597-.87817-1.1076-1.21118a4.19946 4.19946 0 00-1.251-.80981 5.1114 5.1114 0 00-2.96808-.23609 5.3004 5.3004 0 00-2.60766 1.33228 2.77557 2.77557 0 00-.74127 2.46924 7.87984 7.87984 0 001.10559 2.78711 17.00227 17.00227 0 001.89166 2.55468c.35339.39917.724.78662 1.10217 1.14331l1.24182 1.084q1.27789 1.13268 2.48242 2.31445c1.61329 1.57617 3.18036 3.17554 4.73432 4.81152a1.04379 1.04379 0 01.27362.54688l.014.083a7.74759 7.74759 0 00.65533 1.91357 9.74712 9.74712 0 001.14685 1.80762 10.301 10.301 0 001.50922 1.5437c.55884.4939 1.12243.81006 1.882 1.37646A14.62656 14.62656 0 01252.743 370.562a16.99716 16.99716 0 012.05267 4.76636l-.06646-.20825a6.69942 6.69942 0 002.71869 3.28467 8.78834 8.78834 0 004.3236 1.05151 18.59453 18.59453 0 004.772-.646 27.42882 27.42882 0 004.62255-1.65014l.0578-.02686a.65742.65742 0 01.07325-.02832c1.93408-.60376 3.86468-1.1958 5.81714-1.73437 1.95294-.54224 3.89691-1.08423 5.90283-1.52759a9.4982 9.4982 0 005.11749-2.49365 11.39347 11.39347 0 003.03467-5.00464.11427.11427 0 01.14221-.07642.11551.11551 0 01.07935.13086 11.31667 11.31667 0 01-2.704 5.49072 10.471 10.471 0 01-2.43689 1.99829 8.71112 8.71112 0 01-1.44568.6836c-.52228.17065-1.05231.33642-1.50183.44458-1.90711.54345-3.81812 1.20093-5.71826 1.85449l-5.70112 1.988.13068-.05518a29.1856 29.1856 0 01-4.92371 1.97022 20.68958 20.68958 0 01-5.30316.90942 10.60805 10.60805 0 01-5.51318-1.25122 8.75886 8.75886 0 01-2.27051-1.89307 10.59251 10.59251 0 01-1.51233-2.47509l-.02289-.05982-.0437-.14892a15.723 15.723 0 00-1.74438-4.00074 12.49192 12.49192 0 00-2.878-3.24975c-.50812-.40576-1.32343-.91626-1.95209-1.49756a12.63583 12.63583 0 01-1.79553-1.91651 12.0292 12.0292 0 01-1.36768-2.26171 9.54829 9.54829 0 01-.80841-2.634l.28742.62915c-1.49121-1.63623-3.02-3.26269-4.57227-4.84277-.78009-.78662-1.558-1.574-2.35211-2.33081-.40045-.39234-.78223-.71094-1.24207-1.16748-.41986-.42578-.80639-.86182-1.1781-1.313a18.7608 18.7608 0 01-1.98773-2.90186 8.99269 8.99269 0 01-1.1546-3.47558 4.68569 4.68569 0 01.22693-1.9707 4.09649 4.09649 0 011.11639-1.666 6.6373 6.6373 0 013.36084-1.52124 6.2298 6.2298 0 013.59949.47119 5.20284 5.20284 0 011.49841 1.074c.43567.46557.73541.89428 1.09546 1.31445a13.80334 13.80334 0 002.352 2.24658c.8916.63477 1.82465 1.25733 2.768 1.82251a10.25427 10.25427 0 002.91552 1.31885c1.03418.31494.42707-1.12964-.00091-2.02271-.23706-.488-.51831-.96362-.79822-1.43725-.29834-.49488-.5658-.99732-.82312-1.49268a19.46171 19.46171 0 00-1.69244-2.80884l.28.1814a11.01509 11.01509 0 01-2.47253-.81226 7.33835 7.33835 0 01-2.20367-1.519 4.37351 4.37351 0 01-1.22474-2.57031 4.90669 4.90669 0 01.06763-1.43848 6.488 6.488 0 01.17059-.68188l.11145-.32251.06031-.16577.10931-.23658-.041.07862a6.868 6.868 0 011.62957-2.31714 8.69837 8.69837 0 012.32624-1.54126 6.6835 6.6835 0 012.81372-.67725 5.09248 5.09248 0 012.92962.92871l-1.526.48828a6.83 6.83 0 01.93946-1.74389 7.84246 7.84246 0 011.30188-1.408 8.03872 8.03872 0 013.40686-1.6919 10.29383 10.29383 0 013.67572-.13989l.87512.12354a5.22465 5.22465 0 01.98462.25366 8.409 8.409 0 011.70428.82568 13.22372 13.22372 0 014.63086 5.4314 25.47142 25.47142 0 012.084 6.60229l-1.393.0857a12.25862 12.25862 0 011.18842-3.81079 8.41014 8.41014 0 012.51751-3.082 7.62533 7.62533 0 013.67572-1.40577 10.82535 10.82535 0 011.9383.02832 4.16156 4.16156 0 011.85162.56519.11437.11437 0 01-.09772.2063z"/><path d="M280.57346 341.08055a9.01993 9.01993 0 01.746 3.25366 14.10593 14.10593 0 01-.00391 1.65454c-.04742.55225-.10712 1.10571-.20294 1.65186l-.009.05151a.61127.61127 0 01-.07251.19849 9.0255 9.0255 0 01-.85572 1.26367 8.40665 8.40665 0 01-1.12256 1.07983 7.55359 7.55359 0 01-2.67907 1.51587 4.88264 4.88264 0 01-3.159-.26953 4.59559 4.59559 0 01-1.40973-.94116 4.214 4.214 0 01-.31286-.36621 3.05223 3.05223 0 01-.27478-.5232l-.24146-.69555-.44824-1.33619a6.27616 6.27616 0 00-.50519-1.051 9.74159 9.74159 0 00-.65161-.97192c-.10016-.12159-.27936-.36988-.42542-.59107-.14953-.22485-.3042-.44507-.44427-.67309a9.41368 9.41368 0 01-1.08545-2.86646 9.93992 9.93992 0 01-.20709-2.96777.11986.11986 0 01.13-.10865.122.122 0 01.09265.05884 33.30369 33.30369 0 002.93439 4.61841c.14508.14868.27564.30566.41132.45752.14019.155.23712.29077.4544.52026a6.44611 6.44611 0 01.93488 1.37256 7.165 7.165 0 01.56274 1.57031c.068.28931.10144.52369.14258.73633l.12164.67212.11329.67749c.02392.07544-.001.04663.02362.11743.03674.06568.05181.13721.09552.21265a4.13607 4.13607 0 00.71508.9165 2.55648 2.55648 0 002.26709.74292 2.8858 2.8858 0 001.93457-1.61523 11.78043 11.78043 0 00.54944-1.20508 10.53278 10.53278 0 01.49689-1.22778l-.08142.24951c.11822-1.01123.3728-2.00342.5451-3.0332.20679-1.02491.41114-2.04248.694-3.12647a.12082.12082 0 01.14637-.08862A.12524.12524 0 01280.57346 341.08055zM242.97831 360.17332a5.95885 5.95885 0 01-.24023-1.91968 7.09776 7.09776 0 01.30993-1.92749 4.4637 4.4637 0 01.97949-1.75537 2.40226 2.40226 0 011.79548-.83545 3.69106 3.69106 0 00-1.22406 1.27393 7.03911 7.03911 0 00-.67151 1.5957C243.56156 357.73313 243.34074 358.928 242.97831 360.17332zM245.67326 339.95408c.78412-.19336 1.42425-.32617 2.10424-.4602.33753-.06324.67548-.12964 1.0293-.18189a6.58688 6.58688 0 011.13342-.09912 3.2477 3.2477 0 01-1.98718 1.18652 3.577 3.577 0 01-1.17895.02124A2.16121 2.16121 0 01245.67326 339.95408zM249.83671 329.92576a10.24419 10.24419 0 00.38684 2.9314 5.11145 5.11145 0 001.462 2.48535 3.63535 3.63535 0 002.75628.83276 9.318 9.318 0 001.51709-.25024l1.4671-.53-1.42218.66528a9.55963 9.55963 0 01-1.53357.39868 4.06666 4.06666 0 01-3.13439-.666 5.803 5.803 0 01-1.92115-2.65747 11.17159 11.17159 0 01-.71856-3.20069.57135.57135 0 011.13928-.08837c.00134.01733.00189.03466.00165.05175z"/><path d="M254.43174,336.36937a28.44734,28.44734,0,0,1,2.09674,3.77783,14.34919,14.34919,0,0,1,1.3584,4.20288,1.73372,1.73372,0,0,0,1.05444,1.21264,6.19916,6.19916,0,0,0,1.89673.60181,6.48027,6.48027,0,0,0,2.04077.02246,2.71722,2.71722,0,0,0,1.80854-.91064,2.69265,2.69265,0,0,1-1.70105,1.35034,5.94359,5.94359,0,0,1-2.22406.25415,6.14429,6.14429,0,0,1-2.21582-.53833,2.54934,2.54934,0,0,1-1.58-1.93115,9.45336,9.45336,0,0,0-.43927-1.98194c-.19641-.67334-.43439-1.3396-.66351-2.01245Z"/><path d="M269.3,343.52179c-.79-.1499-1.57-.30982-2.36-.47l-23.18-4.74-2.23-.46-9.36-1.92993c-3.72-1.48-7.44-2.95-11.1-4.69019,4.06-.11987,8.05.03027,12.05.18018,2.56.56982,5.14,1.10009,7.72,1.62988,1.28.27,2.56.53,3.84.8l22.64,4.63012A16.47308,16.47308,0,0,0,269.3,343.52179Z"/><path d="M267.23 338.01194a20.57322 20.57322 0 002.54748 5.05811l.87091 1.01074a8.59184 8.59184 0 011.01185 1.23438 6.88664 6.88664 0 01.73016 1.45654c.19409.54809.30047.99609.43994 1.43335.1438.428.25037.99829.36359 1.05347a3.14974 3.14974 0 00.79187.73071 2.83644 2.83644 0 001.99475.478 3.54443 3.54443 0 001.88366-1.19483 7.94514 7.94514 0 00.81067-1.0105l.707-1.15673-.06433.19726c.27222-1.30371.55536-2.63647.7002-3.99048.08526-.67529.14606-1.353.16626-2.03613a11.35274 11.35274 0 00-.074-2.064 11.38378 11.38378 0 01.92951 4.126c.03985.70825.04779 1.41724.03412 2.12671-.03443.71-.114 1.4209-.17109 2.13647a.36863.36863 0 01-.02917.11744l-.03528.08007a10.97862 10.97862 0 01-1.585 2.69678 5.038 5.038 0 01-2.88086 1.89453 4.47937 4.47937 0 01-3.49518-.77343 5.02175 5.02175 0 01-1.28015-1.26587 2.26742 2.26742 0 01-.2727-.49488 2.05674 2.05674 0 01-.13623-.43457l-.16639-.73095c-.11651-.49292-.20587-.9917-.3106-1.36158a6.603 6.603 0 00-.47113-1.17065 6.95934 6.95934 0 00-.699-1.09473c-.2915-.438-.60522-.86157-.8548-1.31176A13.56643 13.56643 0 01267.23 338.01194zM422.11683 224.56382a3.00287 3.00287 0 001.40182 2.49915A8.39115 8.39115 0 00426.2779 228.18l2.94876.68848 1.481.38135c.2478.06665.49591.132.74094.21081l.69577.1781a9.46848 9.46848 0 002.83172.371 5.29179 5.29179 0 002.7395-.85108 5.11645 5.11645 0 001.83994-2.239 4.9451 4.9451 0 00.35379-1.40271 3.47243 3.47243 0 00-.083-1.3357 1.72033 1.72033 0 00-.68008-.843 6.049 6.049 0 00-1.19428-.55091c-.89645-.31713-1.90036-.59326-2.91317-.93017a19.01383 19.01383 0 01-3.05167-1.26258 11.34524 11.34524 0 01-1.451-.91113c-.39316-.23327-.75208-.52063-1.13623-.69934a3.85909 3.85909 0 00-4.53748.427A7.18172 7.18172 0 00422.11683 224.56382zm-.23215 0a12.9768 12.9768 0 01.49521-3.14807 9.577 9.577 0 011.36011-3.04138 5.05237 5.05237 0 013.001-2.12622 5.59261 5.59261 0 013.76583.51758 12.58313 12.58313 0 011.51407.9375c.38053.2677.76062.53528 1.16654.78369a20.31 20.31 0 002.623 1.316c.931.40222 1.9159.75281 2.91721 1.2904a5.96625 5.96625 0 011.46579 1.056 3.15642 3.15642 0 01.88034 1.78833c-.00281 4.8639-4.68588 8.15381-9.2587 7.60511a16.42294 16.42294 0 01-3.14615-.69348 15.16624 15.16624 0 01-2.96084-1.30457 11.07591 11.07591 0 01-2.58832-2.03979A4.42885 4.42885 0 01421.88468 224.56382zM436.72212 191.7252a5.55133 5.55133 0 00.63775 2.47827 6.06284 6.06284 0 001.68225 1.91419 14.91772 14.91772 0 004.62085 2.21557c1.63989.53443 3.3263.9336 5.00366 1.38977l2.53171.65711c.42447.10644.84931.21118 1.26987.33423l1.22894.28027a15.304 15.304 0 004.99088.39905 9.896 9.896 0 004.7272-1.66846 9.48554 9.48554 0 003.21182-3.89331c.14911-.39783.31165-.791.43271-1.19556a9.3484 9.3484 0 00.247-1.23889 6.92756 6.92756 0 00-.03809-2.41272 3.41634 3.41634 0 00-1.22738-1.757 9.61821 9.61821 0 00-2.12268-1.10827c-1.55765-.61389-3.25434-1.10742-4.94159-1.70777a34.41994 34.41994 0 01-5.02683-2.15966 20.11327 20.11327 0 01-2.36325-1.49927 15.27231 15.27231 0 00-2.05157-1.28516 7.2382 7.2382 0 00-4.36145-.91443 7.95786 7.95786 0 00-4.11328 2.06629 13.50283 13.50283 0 00-3.02448 4.08593A12.32094 12.32094 0 00436.72212 191.7252zm-.23215 0a17.85117 17.85117 0 01.959-5.25732 15.93724 15.93724 0 012.48792-4.88355 8.41743 8.41743 0 014.8345-3.2301 9.07673 9.07673 0 015.87357.9 15.63111 15.63111 0 012.428 1.51917c.67718.47546 1.35345.95093 2.07556 1.37683a32.13264 32.13264 0 004.59674 2.21741c1.60956.6538 3.28631 1.2229 4.94818 2.05737a9.77107 9.77107 0 012.39291 1.61218 4.85734 4.85734 0 011.42935 2.70166 10.25875 10.25875 0 01-1.17633 5.43091 12.2798 12.2798 0 01-3.4794 4.16272 13.961 13.961 0 01-10.49167 2.56616l-1.36984-.21826c-.43631-.08643-.86832-.19128-1.30072-.29443-.86493-.21241-1.7315-.42127-2.58432-.698a29.54542 29.54542 0 01-5.0202-1.98987 17.61114 17.61114 0 01-4.45-3.13831A6.85367 6.85367 0 01436.49 191.7252zM443.86781 147.52012a9.82991 9.82991 0 00-.69876 3.86878 7.11024 7.11024 0 001.23364 3.69372 16.54078 16.54078 0 006.026 5.03882 87.91288 87.91288 0 0014.86722 5.81018c5.09726 1.60584 10.23846 3.12744 15.3099 4.91248q3.81472 1.30554 7.562 2.83715c2.4813.98011 4.92075 1.9856 7.44931 2.77454a50.94084 50.94084 0 0015.484 2.89832 26.24787 26.24787 0 007.76639-1.04029 17.65472 17.65472 0 006.80371-3.79309 19.05494 19.05494 0 004.54923-6.369 28.49962 28.49962 0 002.09481-7.62048 43.5597 43.5597 0 00.35257-7.9375c-.07-1.32666-.14752-2.65124-.30194-3.97192a27.77255 27.77255 0 00-.61844-3.88733 49.46554 49.46554 0 00-6.46807-14.34632 62.69055 62.69055 0 00-10.10453-12.089 46.605 46.605 0 00-13.01223-8.60949 38.2922 38.2922 0 00-7.3917-2.34412 31.464 31.464 0 00-7.70541-.58179 34.72026 34.72026 0 00-14.981 3.59913 42.05111 42.05111 0 00-12.28671 9.5957 71.7465 71.7465 0 00-9.11228 13.04553A129.61252 129.61252 0 00443.86781 147.52012zm-.2154-.08655c1.97992-4.97851 4.08725-9.91 6.46231-14.72985a75.33123 75.33123 0 018.51941-13.73523 39.90862 39.90862 0 0112.42954-10.59436 36.04274 36.04274 0 0115.92471-4.08521 35.0143 35.0143 0 0116.1471 3.18555A48.89732 48.89732 0 01516.665 116.703a60.88827 60.88827 0 0110.17916 12.71363 48.64086 48.64086 0 016.14515 15.04724 53.69587 53.69587 0 01.13333 16.18847c-.793 5.31446-2.896 10.67237-6.94348 14.42395a19.09931 19.09931 0 01-7.01419 4.14417 27.35785 27.35785 0 01-8.04288 1.4259 51.45374 51.45374 0 01-16.07947-2.3457c-2.60147-.75793-5.15475-1.70654-7.64951-2.70276-2.46615-.99219-4.9671-1.9093-7.471-2.8302-5.02048-1.80615-10.07959-3.55994-15.10382-5.45947-2.51187-.94885-5.0159-1.931-7.486-3.0033a56.5389 56.5389 0 01-7.20932-3.6593 29.37186 29.37186 0 01-3.3023-2.35193 13.50388 13.50388 0 01-2.6865-3.0415 7.6484 7.6484 0 01-1.23159-3.85022A10.077 10.077 0 01443.65241 147.43357z"/><path d="M481.854,146.0802h.398a19.00781,19.00781,0,0,0-6.199,13.5,18.67765,18.67765,0,0,0,.398,4.102,1.01522,1.01522,0,0,0,1.204.796,18.69515,18.69515,0,0,0,14-12.199,18.58867,18.58867,0,0,0,14.699,11.301,1.20966,1.20966,0,0,0,.801-.199,1.65316,1.65316,0,0,0,.398-.699,18.8503,18.8503,0,0,0-6.898-17.204,18.926,18.926,0,0,0,15.5-10.097.95782.95782,0,0,0-.403-1.301,18.762,18.762,0,0,0-18.5.801,18.87427,18.87427,0,0,0-4.5-18,.962.962,0,0,0-1.398,0,18.49845,18.49845,0,0,0-4.903,19.097,17.94531,17.94531,0,0,0-9.796-3,18.17294,18.17294,0,0,0-9.903,2.602.98488.98488,0,0,0-.301,1.398,17.713,17.713,0,0,0,15.403,9.102Zm9.597-10.301a6.30177,6.30177,0,0,1,0,12.602,6.27128,6.27128,0,0,1-6.296-6.301,6.33665,6.33665,0,0,1,6.296-6.301Zm0,0"/><path d="M491.451 146.27917a4.29849 4.29849 0 100-8.597 4.2639 4.2639 0 00-4.296 4.296 4.39473 4.39473 0 004.296 4.301zm0 0M518.66261 287.34055a37.06388 37.06388 0 005.5369 7.01722 12.94432 12.94432 0 01-6.20947-1.34609 8.79489 8.79489 0 01-3.40277-3.11413 8.98766 8.98766 0 01-1.30714-4.441 12.78 12.78 0 011.46061-6.171A36.351 36.351 0 00518.66261 287.34055z"/><path d="M525.67983 288.18678a12.66568 12.66568 0 01-1.48032 6.171 36.341 36.341 0 00-3.92187-8.055 37.66722 37.66722 0 00-5.5369-7.01722 12.67956 12.67956 0 016.1907 1.36487 8.95494 8.95494 0 013.42154 3.09534A8.74694 8.74694 0 01525.67983 288.18678zM513.52982 305.68078A36.41349 36.41349 0 00519.086 312.698a12.89034 12.89034 0 01-6.20994-1.34609 8.86182 8.86182 0 01-3.422-3.11413 8.99239 8.99239 0 01-1.30713-4.441 12.78014 12.78014 0 011.46108-6.171A37.21568 37.21568 0 00513.52982 305.68078z"/><path d="M520.54657 306.52654A12.82591 12.82591 0 01519.086 312.698a38.17167 38.17167 0 00-3.92187-8.05542 37.78789 37.78789 0 00-5.55613-7.01675 12.62284 12.62284 0 016.19022 1.36487 8.58754 8.58754 0 014.74839 7.53584zM507.74324 325.86648a37.02374 37.02374 0 005.55567 7.01722 12.65057 12.65057 0 01-6.20947-1.36533 8.66832 8.66832 0 01-3.42155-3.09488 8.988 8.988 0 01-1.3076-4.441 12.73382 12.73382 0 011.46108-6.171A37.21517 37.21517 0 00507.74324 325.86648z"/><path d="M514.76045 326.693a12.85 12.85 0 01-1.46154 6.1907 37.25856 37.25856 0 00-3.94065-8.05541 37.6785 37.6785 0 00-5.53689-7.01675 12.6216 12.6216 0 016.19022 1.36486 8.94944 8.94944 0 013.422 3.09535A8.73332 8.73332 0 01514.76045 326.693zM504.91729 347.35932a37.28677 37.28677 0 005.55567 7.03646 12.651 12.651 0 01-6.20947-1.36486 8.67926 8.67926 0 01-4.72914-7.53632 12.95535 12.95535 0 011.46108-6.171A37.97211 37.97211 0 00504.91729 347.35932z"/><path d="M511.934 348.20509a12.62358 12.62358 0 01-1.46108 6.19069 41.41247 41.41247 0 00-9.47753-15.07216 12.623 12.623 0 016.19022 1.36486 8.67076 8.67076 0 013.422 3.09535A8.49491 8.49491 0 01511.934 348.20509zM504.07341 360.49542a12.79889 12.79889 0 016.19445 1.36252 8.85534 8.85534 0 013.42342 3.1038 8.71352 8.71352 0 011.325 4.42266 12.70582 12.70582 0 01-1.47188 6.18037 12.70653 12.70653 0 01-6.20759-1.35407 8.71458 8.71458 0 01-3.41028-3.11224 8.85247 8.85247 0 01-1.31136-4.43111A12.7935 12.7935 0 01504.07341 360.49542zM531.52368 292.9929a58.30475 58.30475 0 00-7.42039 4.19081 14.84156 14.84156 0 012.21063-5.72886 8.19827 8.19827 0 013.09534-2.76868 7.44587 7.44587 0 013.92187-.73031 23.31437 23.31437 0 015.80583 1.34562zM538.06028 295.68414a8.2473 8.2473 0 01-8.22813 4.11383 11.03266 11.03266 0 01-5.72886-2.61426 19.78673 19.78673 0 004.26778-.865 31.3298 31.3298 0 004.01808-1.59578 23.98417 23.98417 0 003.7102-2.26883 12.16843 12.16843 0 003.03761-3.15261A8.85241 8.85241 0 01538.06028 295.68414zM528.525 310.29494c-3.17232 1.15318-6.4019 2.17214-9.65072 3.537a17.747 17.747 0 013.88338-5.49794 12.0591 12.0591 0 014.15232-2.557 10.88739 10.88739 0 014.5752-.61531 41.953 41.953 0 016.34464 1.13441A56.36289 56.36289 0 01528.525 310.29494z"/><path d="M535.65722 313.21709a11.07806 11.07806 0 01-10.59271 3.86367 11.9265 11.9265 0 01-6.19022-3.24882 22.61121 22.61121 0 005.229-.40364 31.08157 31.08157 0 005.05581-1.32638 23.95086 23.95086 0 004.76764-2.24911 12.80206 12.80206 0 003.90309-3.55672A9.05255 9.05255 0 01535.65722 313.21709zM524.91057 325.25117c-3.17185 1.15366-6.40191 2.17261-9.65073 3.53747a17.46121 17.46121 0 013.90263-5.49841 11.823 11.823 0 014.13354-2.55653 10.88755 10.88755 0 014.5752-.61532 41.94917 41.94917 0 016.34417 1.13442A56.30421 56.30421 0 01524.91057 325.25117z"/><path d="M532.04277 328.17333a11.07675 11.07675 0 01-10.59223 3.86414 11.92781 11.92781 0 01-6.1907-3.24883 22.61269 22.61269 0 005.22947-.40364 31.04915 31.04915 0 005.05582-1.32684 23.93729 23.93729 0 004.76763-2.24912 12.79346 12.79346 0 003.90262-3.55624A9.04958 9.04958 0 01532.04277 328.17333zM521.87295 343.57216c-3.21034 1.46107-6.57462 2.65322-9.93891 4.15231a18.90932 18.90932 0 013.90263-5.69037 13.93921 13.93921 0 014.09506-2.864 12.30172 12.30172 0 014.441-1.03819c1.65305-.154 3.34458.17272 6.32446-.23092a16.05185 16.05185 0 01-4.13307 3.30655A39.61565 39.61565 0 01521.87295 343.57216z"/><path d="M531.25474 339.99666a10.36507 10.36507 0 01-.1347 2.03744 10.124 10.124 0 01-1.48033 3.47975 11.64318 11.64318 0 01-5.03657 4.21005 11.82307 11.82307 0 01-6.056.94245 12.10957 12.10957 0 01-6.61311-2.94188 22.72338 22.72338 0 005.47917-.67257 28.9097 28.9097 0 005.24824-1.73049 19.79118 19.79118 0 004.78688-2.90244 9.43143 9.43143 0 003.24882-4.51794 8.23364 8.23364 0 01.36563 1.03819A9.416 9.416 0 01531.25474 339.99666zM511.85707 369.62189a18.70937 18.70937 0 011.37-6.15925 10.05021 10.05021 0 012.3181-3.43281 7.63075 7.63075 0 013.16622-1.73377c1.27757-.43931 2.84143-.41725 5.33977-1.84313a8.25442 8.25442 0 01.79555.67305 8.71 8.71 0 01.62892.80258 7.69979 7.69979 0 01.75659 1.77883 8.14069 8.14069 0 01.06853 3.55484 9.49059 9.49059 0 01-2.94516 5.25341 9.25013 9.25013 0 01-4.9596 2.36175A10.38848 10.38848 0 01511.85707 369.62189zM530.44746 275.51768a42.66449 42.66449 0 00-2.26836 9.516 13.33924 13.33924 0 01-2.6917-6.07476 10.58686 10.58686 0 01.40363-5.0178 10.23352 10.23352 0 012.76869-4.21005 13.48422 13.48422 0 015.86309-3.11459A43.21686 43.21686 0 00530.44746 275.51768zM536.81041 277.70907a10.29544 10.29544 0 01-2.78746 4.19127 13.32633 13.32633 0 01-5.84385 3.13336 45.28367 45.28367 0 004.07535-8.9007 42.9227 42.9227 0 002.26836-9.5165 13.40773 13.40773 0 012.71095 6.07524A10.35844 10.35844 0 01536.81041 277.70907z"/><path d="M501.68724,383.88584c.3079.59607.59608,1.21138.88472,1.807.32667.69229.65381,1.36534.98047,2.05715.57636,1.21139,1.15319,2.40306,1.71077,3.61445.49986-1.32638,1.019-2.634,1.51881-3.94111.30743-.74955.61532-1.51881.92274-2.26836.11546-.32666.25016-.63456.3844-.96122C505.95549,384.136,503.82137,384.03978,501.68724,383.88584Zm8.28587,3.2108-.49939-1.21138q-.25979.66318-.5191,1.32637c-.75,1.90368-1.5,3.80641-2.28807,5.69037,1.884-.0765,3.7684-.13423,5.65236-.15347Zm6.09448-2.84565c-.92321,0-1.846.01971-2.78746.03848-.80775-.01877-1.615-.01877-2.44154-.03848l.2112.53881.78851,2.13365,1.71077,4.55643,1.84547-4.90234.865-2.32655Zm1.6338,2.09563-.40364-1.13441-.42288,1.21139-2.17261,6.34417c1.78821.01924,3.576.05773,5.38294.13423Zm.55758-2.13365.673,2.01866,2.01819,6.094,2.82641-6.55585.788-1.84548C522.469,384.059,520.35461,384.15524,518.259,384.213Zm7.47859,1.36486-.59607-1.46108-.61532,1.57607-2.82594,7.28616c2.4223.1347,4.86385.34638,7.3054.69228Zm-24.05032-1.692c.3079.59607.59608,1.21138.88472,1.807.32667.69229.65381,1.36534.98047,2.05715.57636,1.21139,1.15319,2.40306,1.71077,3.61445.49986-1.32638,1.019-2.634,1.51881-3.94111.30743-.74955.61532-1.51881.92274-2.26836.11546-.32666.25016-.63456.3844-.96122C505.95549,384.136,503.82137,384.03978,501.68724,383.88584Zm8.28587,3.2108-.49939-1.21138q-.25979.66318-.5191,1.32637c-.75,1.90368-1.5,3.80641-2.28807,5.69037,1.884-.0765,3.7684-.13423,5.65236-.15347Zm6.09448-2.84565c-.92321,0-1.846.01971-2.78746.03848-.80775-.01877-1.615-.01877-2.44154-.03848l.2112.53881.78851,2.13365,1.71077,4.55643,1.84547-4.90234.865-2.32655Zm1.6338,2.09563-.40364-1.13441-.42288,1.21139-2.17261,6.34417c1.78821.01924,3.576.05773,5.38294.13423Zm.55758-2.13365.673,2.01866,2.01819,6.094,2.82641-6.55585.788-1.84548C522.469,384.059,520.35461,384.15524,518.259,384.213Zm7.47859,1.36486-.59607-1.46108-.61532,1.57607-2.82594,7.28616c2.4223.1347,4.86385.34638,7.3054.69228Zm-25.0688-.84623c-.21168.40411-.44213.827-.6538,1.23063l1.09593-.11546C500.95694,385.48162,500.82271,385.09722,500.66876,384.7316Zm1.01848-.84576c.3079.59607.59608,1.21138.88472,1.807.32667.69229.65381,1.36534.98047,2.05715,1.07669-.115,2.1529-.23045,3.22958-.32666.30743-.74955.61532-1.51881.92274-2.26836.11546-.32666.25016-.63456.3844-.96122C505.95549,384.136,503.82137,384.03978,501.68724,383.88584Zm7.78648,1.99942q-.25979.66318-.5191,1.32637c.32667-.03848.67258-.077,1.01849-.115Zm3.80641-1.59579c-.80775-.01877-1.615-.01877-2.44154-.03848l.2112.53881c1.67276-.17319,3.345-.36562,5.0178-.53881C515.14438,384.251,514.22164,384.2707,513.28013,384.28947ZM491.3447,355.95308l4.26778,27.37517c1.615-.21121,3.22958-.36515,4.82536-.49939a.56753.56753,0,0,1,.5191-.077l.03849.03849c2.72972-.19243,5.44067-.32714,8.15116-.38487a1.1229,1.1229,0,0,1,.61531,0c1.17243-.01877,2.34533-.03848,3.51823-.03848,4.84461.01971,9.6695.1347,14.49487.59607,1.05744.11546,2.13412.23092,3.19156.36515l.115-.7303,4.13355-26.64487Zm6.7863,25.77986c-3.7102,0-3.7102-5.76735,0-5.76735C501.86043,375.96559,501.84119,381.73294,498.131,381.73294Zm10.3815,0c-3.71066,0-3.71066-5.76735,0-5.76735C512.24193,375.96559,512.22269,381.73294,508.5125,381.73294Zm10.03465-.34591c-3.71019,0-3.71019-5.76735,0-5.76735C522.27706,375.61968,522.25781,381.387,518.54715,381.387Zm9.8624.34591c-3.71019,0-3.71019-5.76735,0-5.76735C532.139,375.96559,532.11975,381.73294,528.40955,381.73294Zm-2.672,3.84489-.59607-1.46108-.61532,1.57607-2.82594,7.28616c2.4223.1347,4.86385.34638,7.3054.69228ZM518.259,384.213l.673,2.01866,2.01819,6.094,2.82641-6.55585.788-1.84548C522.469,384.059,520.35461,384.15524,518.259,384.213Zm-.55758,2.13365-.40364-1.13441-.42288,1.21139-2.17261,6.34417c1.78821.01924,3.576.05773,5.38294.13423Zm-1.6338-2.09563c-.92321,0-1.846.01971-2.78746.03848-.80775-.01877-1.615-.01877-2.44154-.03848l.2112.53881.78851,2.13365,1.71077,4.55643,1.84547-4.90234.865-2.32655Zm-6.09448,2.84565-.49939-1.21138q-.25979.66318-.5191,1.32637c-.75,1.90368-1.5,3.80641-2.28807,5.69037,1.884-.0765,3.7684-.13423,5.65236-.15347Zm-8.28587-3.2108c.3079.59607.59608,1.21138.88472,1.807.32667.69229.65381,1.36534.98047,2.05715.57636,1.21139,1.15319,2.40306,1.71077,3.61445.49986-1.32638,1.019-2.634,1.51881-3.94111.30743-.74955.61532-1.51881.92274-2.26836.11546-.32666.25016-.63456.3844-.96122C505.95549,384.136,503.82137,384.03978,501.68724,383.88584Zm24.05032,1.692-.59607-1.46108-.61532,1.57607-2.82594,7.28616c2.4223.1347,4.86385.34638,7.3054.69228ZM518.259,384.213l.673,2.01866,2.01819,6.094,2.82641-6.55585.788-1.84548C522.469,384.059,520.35461,384.15524,518.259,384.213Zm-.55758,2.13365-.40364-1.13441-.42288,1.21139-2.17261,6.34417c1.78821.01924,3.576.05773,5.38294.13423Zm-1.6338-2.09563c-.92321,0-1.846.01971-2.78746.03848-.80775-.01877-1.615-.01877-2.44154-.03848l.2112.53881.78851,2.13365,1.71077,4.55643,1.84547-4.90234.865-2.32655Zm-6.09448,2.84565-.49939-1.21138q-.25979.66318-.5191,1.32637c-.75,1.90368-1.5,3.80641-2.28807,5.69037,1.884-.0765,3.7684-.13423,5.65236-.15347Zm-8.28587-3.2108c.3079.59607.59608,1.21138.88472,1.807.32667.69229.65381,1.36534.98047,2.05715.57636,1.21139,1.15319,2.40306,1.71077,3.61445.49986-1.32638,1.019-2.634,1.51881-3.94111.30743-.74955.61532-1.51881.92274-2.26836.11546-.32666.25016-.63456.3844-.96122C505.95549,384.136,503.82137,384.03978,501.68724,383.88584Zm14.38035.36515c-1.67276.17319-3.345.36562-5.0178.53881l.78851,2.13365c1.17243-.11546,2.36457-.23092,3.55624-.34591l.865-2.32655Zm1.23016.96122-.42288,1.21139c.26893-.01925.55758-.03849.82652-.077Zm.96122-.99924.673,2.01866q2.42183-.23091,4.8446-.46183l.788-1.84548C522.469,384.059,520.35461,384.15524,518.259,384.213Zm6.88252-.09622-.61532,1.57607q.60546-.057,1.21139-.115Zm.49985-.2694.61532,1.692,2.94093,8.13191v.01925a.42372.42372,0,0,1,.15394.01924l1.34562-8.59329.26941-1.78821C529.17882,383.55917,527.40984,383.71312,525.64134,383.84735Zm3.53748,9.88164c0,.01925,0,.05773-.03849.05773a.09254.09254,0,0,1-.11546-.03848,123.61947,123.61947,0,0,1-15.74474.92274c-2.48-.01925-4.96006-.077-7.4401-.19244a.86658.86658,0,0,1-.865.09622,1.60542,1.60542,0,0,1-.23091-.154c-2.49928-.15347-5.01733-.36515-7.51661-.71106l1.28789,8.26662h29.54825l1.28789-8.26662A.5286.5286,0,0,0,529.17882,393.729Zm-24.49244,7.51661c-3.72944,0-3.7102-5.76735,0-5.76735C508.397,395.47825,508.397,401.2456,504.68638,401.2456Zm9.68921,0c-3.72944,0-3.71019-5.76735,0-5.76735C518.08625,395.47825,518.08625,401.2456,514.37559,401.2456Zm9.68921-.34591c-3.72943,0-3.71019-5.76735,0-5.76735S527.775,400.89969,524.0648,400.89969Zm1.67276-15.32186-.59607-1.46108-.61532,1.57607-2.82594,7.28616c2.4223.1347,4.86385.34638,7.3054.69228ZM518.259,384.213l.673,2.01866,2.01819,6.094,2.82641-6.55585.788-1.84548C522.469,384.059,520.35461,384.15524,518.259,384.213Zm-.55758,2.13365-.40364-1.13441-.42288,1.21139-2.17261,6.34417c1.78821.01924,3.576.05773,5.38294.13423Zm-1.6338-2.09563c-.92321,0-1.846.01971-2.78746.03848-.80775-.01877-1.615-.01877-2.44154-.03848l.2112.53881.78851,2.13365,1.71077,4.55643,1.84547-4.90234.865-2.32655Zm-6.09448,2.84565-.49939-1.21138q-.25979.66318-.5191,1.32637c-.75,1.90368-1.5,3.80641-2.28807,5.69037,1.884-.0765,3.7684-.13423,5.65236-.15347Zm-8.28587-3.2108c.3079.59607.59608,1.21138.88472,1.807.32667.69229.65381,1.36534.98047,2.05715.57636,1.21139,1.15319,2.40306,1.71077,3.61445.49986-1.32638,1.019-2.634,1.51881-3.94111.30743-.74955.61532-1.51881.92274-2.26836.11546-.32666.25016-.63456.3844-.96122C505.95549,384.136,503.82137,384.03978,501.68724,383.88584Zm.25017,4.01808c-.26894-.67257-.55759-1.36486-.82652-2.05715-.154-.36515-.28818-.74955-.44213-1.11517-.21168.40411-.44213.827-.6538,1.23063-.3844.75-.788,1.49957-1.19168,2.24911q-.89411,1.70163-1.84547,3.40277a.07162.07162,0,0,1-.0582.01925l.30789,2.07639c2.26836-.32713,4.55643-.5191,6.82479-.673C503.36,391.32593,502.64847,389.61469,501.93741,387.90392Zm1.615-.154c.57636,1.21139,1.15319,2.40306,1.71077,3.61445.49986-1.32638,1.019-2.634,1.51881-3.94111C505.70533,387.51952,504.62912,387.635,503.55243,387.75Zm6.42068-.65333c-.34591.038-.69182.07651-1.01849.115-.75,1.90368-1.5,3.80641-2.28807,5.69037,1.884-.0765,3.7684-.13423,5.65236-.15347Zm1.86519-.17319,1.71077,4.55643,1.84547-4.90234C514.20287,386.69253,513.01073,386.808,511.8383,386.92345Zm5.86309-.57683c-.26894.03849-.55759.05773-.82652.077l-2.17261,6.34417c1.78821.01924,3.576.05773,5.38294.13423Zm1.23063-.115,2.01819,6.094,2.82641-6.55585Q521.35409,386.00071,518.932,386.23163Zm6.80554-.6538q-.60546.05773-1.21139.115l-2.82594,7.28616c2.4223.1347,4.86385.34638,7.3054.69228Zm-30.12508-2.24958.48061,3.05686.30742,2.0764.46184,2.90291c.40364-1.0382.80728-2.05715,1.21092-3.0761.28818-.74955.59607-1.48033.90349-2.21063.30742-.76879.61532-1.538.942-2.30731C498.47691,383.65539,497.05431,383.50144,495.61248,383.32825Z"/><path d="M515.94788 378.95666c-1.72157-1.31-2.64525-3.37508-3.44079-5.34822-.30226-1.02646-.69417-2.04307-.92462-3.09206l-.65051-3.1634a74.59424 74.59424 0 01-.48437-12.84464c.07557-4.295.71763-8.52664 1.21514-12.77565.77865-4.195 1.37848-8.43793 2.397-12.579.95559-4.15795 1.91118-8.315 3.11882-12.40111 1.16351-4.09928 2.281-8.20936 3.71488-12.22134 1.38646-4.02513 2.6307-8.09437 4.1725-12.06083 1.56012-3.96082 3.04091-7.94512 4.66626-11.87356-2.26132 8.207-4.87981 16.27557-7.08152 24.46522l-1.71265 6.11982-1.57654 6.15221c-.50924 2.0534-1.12409 4.08192-1.5817 6.14611l-1.39115 6.18694c-1.057 4.10022-1.6521 8.2807-2.50115 12.41941-.62329 4.16734-1.279 8.338-1.616 12.53346a75.01625 75.01625 0 00-.18493 12.59495l.3736 3.123c.13846 1.04054.43462 2.04447.64536 3.07657C513.7396 375.38211 514.41076 377.46179 515.94788 378.95666zM219.63661 303.32629c-.9519 2.69125-2.03207 5.32709-3.11223 7.96292l-4.30144 7.24877-8.25564 13.94873h-3.18508l.49428-.82409 8.585-14.51585 4.30144-7.26709C215.95681 307.68315 217.73281 305.4683 219.63661 303.32629zM199.5376 312.44222l-1.0252 8.96979-1.263 11.0747h-2.76454l1.3-11.38619 1.00688-8.96935c.75035-2.94687 1.48237-5.8942 2.39763-8.80488C199.40934 306.38356 199.48218 309.40373 199.5376 312.44222zM188.20646 332.48661h1.739l-.97017-6.79121-.78712-5.45494L186.98 311.67365c-.82374-2.78238-1.62916-5.58307-2.59933-8.34714-.12814 2.398-.16475 4.77764-.14645 7.15731v1.59255l.3478 2.36136.897 6.18714 1.70238 11.86174zM182.40378 332.48671h-2.76409l-1.72058-11.8617-1.2263-8.5488c-.01877-2.91024-.01877-5.82092.14614-8.74992.97022 2.76454 1.77554 5.56484 2.59963 8.34726l1.208 8.56713 1.17133 8.164z"/><path d="M184.582 312.827v1.61064l-.01832 6.80946v11.23961h-2.74578V312.827c.40266-2.80074.80532-5.60148 1.37289-8.42054.40266 2.03206.7508 4.06369 1.04352 6.07743C184.36256 311.27089 184.4725 312.04 184.582 312.827zM193.03918 314.23609l-.9519 8.36558-1.11681 9.885h-2.7641l.76912-6.79114.38434-3.40495.93358-8.36558c.7137-2.74577 1.42785-5.49154 2.30647-8.20067C192.856 308.56176 192.94757 311.39915 193.03918 314.23609zM173.92827 343.68923v9.885c.4764-.055.9519-.09162 1.42785-.14659l4.11866-9.24419C177.62594 344.05524 175.77755 343.90911 173.92827 343.68923zm6.05911.65918l-4.41138 9.061c2.65416-.27484 5.32664-.45763 7.98124-.56757zm.58589-.09161l3.771 8.12737 3.00184-7.85253C185.09459 344.495 182.82477 344.38506 180.57327 344.2568zm7.72472 1.06184l-3.09347 7.46819c1.95833-.07329 3.89879-.10993 5.85756-.12781zm3.89878-.71415c-.9519-.01833-1.92168-.03665-2.87359-.03665l2.80074 6.90108 2.37976-6.90108C193.73456 344.58616 192.96589 344.58616 192.19677 344.60449zm3.53321 1.7389L193.3319 352.659c1.5378.01788 3.07514.03665 4.61294.09117C197.17616 350.60863 196.44369 348.48539 195.73 346.34339zm1.28127-1.81175c.787 2.17821 1.5378 4.35641 2.26983 6.53462.98854-2.2515 1.95877-4.48467 2.96564-6.71785C200.50738 344.43958 198.76848 344.495 197.01125 344.53164zm6.26022.842c-.91526 2.48925-1.86671 4.96062-2.81862 7.44987 2.10492.07329 4.20983.20155 6.29687.38434C205.54129 350.60863 204.40661 348.00944 203.27147 345.37361zm-29.3432-12.8869v11.20252a156.3971 156.3971 0 0118.2685-.91526c1.11681 0 2.23362.01833 3.35.03665a.906.906 0 01.49428 0c2.34311.03664 4.6679.12826 6.99269.25607a.6666.6666 0 01.18278-.03619.73535.73535 0 01.27485.055c2.32479.14614 4.64958.32937 6.97392.60377V332.48671zm4.26524 8.18235c-3.55109 0-3.53277-5.49154 0-5.49154C181.72673 335.17752 181.72673 340.66906 178.19351 340.66906zm9.8846 0c-3.55109 0-3.53277-5.49154 0-5.49154C191.61133 335.17752 191.61133 340.66906 188.07811 340.66906zm9.55568-.32937c-3.55109 0-3.53321-5.49154 0-5.49154C201.16656 334.84815 201.16656 340.33969 197.63379 340.33969zm9.39033.32937c-3.55109 0-3.53277-5.49154 0-5.49154C210.55733 335.17752 210.55733 340.66906 207.02412 340.66906zm-2.94688 3.56941c1.02475 2.98353 2.0133 5.9675 2.92855 8.98812 1.15346.10949 2.30647.2011 3.45948.34769v-9.885C208.342 343.92743 206.2188 344.11021 204.07724 344.23847zm-24.08986.10994l-4.41138 9.061c2.65416-.27484 5.32664-.45763 7.98124-.56757zm.58589-.09161l3.771 8.12737 3.00184-7.85253C185.09459 344.495 182.82477 344.38506 180.57327 344.2568zm7.72472 1.06184l-3.09347 7.46819c1.95833-.07329 3.89879-.10993 5.85756-.12781zm3.89878-.71415c-.9519-.01833-1.92168-.03665-2.87359-.03665l2.80074 6.90108 2.37976-6.90108C193.73456 344.58616 192.96589 344.58616 192.19677 344.60449zm3.53321 1.7389L193.3319 352.659c1.5378.01788 3.07514.03665 4.61294.09117C197.17616 350.60863 196.44369 348.48539 195.73 346.34339zm1.28127-1.81175c.787 2.17821 1.5378 4.35641 2.26983 6.53462.98854-2.2515 1.95877-4.48467 2.96564-6.71785C200.50738 344.43958 198.76848 344.495 197.01125 344.53164zm6.26022.842c-.91526 2.48925-1.86671 4.96062-2.81862 7.44987 2.10492.07329 4.20983.20155 6.29687.38434C205.54129 350.60863 204.40661 348.00944 203.27147 345.37361zm-23.28409-1.0252l-4.41138 9.061c2.65416-.27484 5.32664-.45763 7.98124-.56757zm.58589-.09161l3.771 8.12737 3.00184-7.85253C185.09459 344.495 182.82477 344.38506 180.57327 344.2568zm7.72472 1.06184l-3.09347 7.46819c1.95833-.07329 3.89879-.10993 5.85756-.12781zm3.89878-.71415c-.9519-.01833-1.92168-.03665-2.87359-.03665l2.80074 6.90108 2.37976-6.90108C193.73456 344.58616 192.96589 344.58616 192.19677 344.60449zm3.53321 1.7389L193.3319 352.659c1.5378.01788 3.07514.03665 4.61294.09117C197.17616 350.60863 196.44369 348.48539 195.73 346.34339zm1.28127-1.81175c.787 2.17821 1.5378 4.35641 2.26983 6.53462.98854-2.2515 1.95877-4.48467 2.96564-6.71785C200.50738 344.43958 198.76848 344.495 197.01125 344.53164zm6.26022.842c-.91526 2.48925-1.86671 4.96062-2.81862 7.44987 2.10492.07329 4.20983.20155 6.29687.38434C205.54129 350.60863 204.40661 348.00944 203.27147 345.37361zm-29.3432 18.90891v2.26982a18.2685 18.2685 0 0036.537 0v-2.26982a182.77637 182.77637 0 01-36.537 0zm25.73714-9.93957a.88156.88156 0 01-.80532.09162 1.124 1.124 0 01-.10994-.0733c-2.1782.0733-4.37473.10994-6.55338.12826a164.83547 164.83547 0 01-18.2685-.91525v10.70824a156.3971 156.3971 0 0118.2685-.91526 156.78885 156.78885 0 0118.2685.91526V353.57428C206.85966 353.99526 203.27147 354.21469 199.66541 354.34295zm-20.64826 7.41367c-3.55109 0-3.53277-5.49154 0-5.49154S182.54992 361.75662 179.01715 361.75662zm8.40223-.1649c-3.5511 0-3.53277-5.49155 0-5.49155S190.95214 361.59172 187.41938 361.59172zm9.22586 0c-3.55109 0-3.53321-5.49155 0-5.49155C200.178 356.10017 200.178 361.59172 196.64524 361.59172zm9.22587-.32937c-3.55109 0-3.53322-5.49154 0-5.49154C209.40387 355.77081 209.40387 361.26235 205.87111 361.26235zm.87861-8.05453c-1.20843-2.59919-2.34311-5.19838-3.47825-7.83421-.91526 2.48925-1.86671 4.96062-2.81862 7.44987C202.55777 352.89677 204.66268 353.025 206.74972 353.20782zm-4.503-8.85941c-1.73934.09117-3.47824.14659-5.23547.18323.787 2.17821 1.5378 4.35641 2.26983 6.53462C200.26962 348.81476 201.23985 346.58159 202.24672 344.34841zm-4.30188 8.40178c-.76868-2.14156-1.50115-4.2648-2.21486-6.4068L193.3319 352.659C194.8697 352.6769 196.407 352.69567 197.94484 352.75019zm-3.44116-8.18235c-.76912.01832-1.53779.01832-2.30691.03665-.9519-.01833-1.92168-.03665-2.87359-.03665l2.80074 6.90108zm-3.4416 8.09118l-2.76409-7.34038-3.09347 7.46819C187.16285 352.71354 189.10331 352.6769 191.06208 352.659zm-3.716-8.12738c-2.25149-.03664-4.52131-.14658-6.77281-.27484l3.771 8.12737zm-7.3587-.18323l-4.41138 9.061c2.65416-.27484 5.32664-.45763 7.98124-.56757zm23.28409 1.0252c-.91526 2.48925-1.86671 4.96062-2.81862 7.44987 2.10492.07329 4.20983.20155 6.29687.38434C205.54129 350.60863 204.40661 348.00944 203.27147 345.37361zm-6.26022-.842c.787 2.17821 1.5378 4.35641 2.26983 6.53462.98854-2.2515 1.95877-4.48467 2.96564-6.71785C200.50738 344.43958 198.76848 344.495 197.01125 344.53164zM195.73 346.34339L193.3319 352.659c1.5378.01788 3.07514.03665 4.61294.09117C197.17616 350.60863 196.44369 348.48539 195.73 346.34339zm-3.53321-1.7389c-.9519-.01833-1.92168-.03665-2.87359-.03665l2.80074 6.90108 2.37976-6.90108C193.73456 344.58616 192.96589 344.58616 192.19677 344.60449zm-3.89878.71415l-3.09347 7.46819c1.95833-.07329 3.89879-.10993 5.85756-.12781zm-7.72472-1.06184l3.771 8.12737 3.00184-7.85253C185.09459 344.495 182.82477 344.38506 180.57327 344.2568zm-.58589.09161l-4.41138 9.061c2.65416-.27484 5.32664-.45763 7.98124-.56757zm23.28409 1.0252c-.91526 2.48925-1.86671 4.96062-2.81862 7.44987 2.10492.07329 4.20983.20155 6.29687.38434C205.54129 350.60863 204.40661 348.00944 203.27147 345.37361zm-6.26022-.842c.787 2.17821 1.5378 4.35641 2.26983 6.53462.98854-2.2515 1.95877-4.48467 2.96564-6.71785C200.50738 344.43958 198.76848 344.495 197.01125 344.53164zM195.73 346.34339L193.3319 352.659c1.5378.01788 3.07514.03665 4.61294.09117C197.17616 350.60863 196.44369 348.48539 195.73 346.34339zm-3.53321-1.7389c-.9519-.01833-1.92168-.03665-2.87359-.03665l2.80074 6.90108 2.37976-6.90108C193.73456 344.58616 192.96589 344.58616 192.19677 344.60449zm-3.89878.71415l-3.09347 7.46819c1.95833-.07329 3.89879-.10993 5.85756-.12781zm-7.72472-1.06184l3.771 8.12737 3.00184-7.85253C185.09459 344.495 182.82477 344.38506 180.57327 344.2568zm-.58589.09161l-4.41138 9.061c2.65416-.27484 5.32664-.45763 7.98124-.56757zM349.29 340.80174c.70489 2.63818 1.49182 5.20776 2.26391 7.78369.79846 2.56689 1.59784 5.12866 2.43753 7.67993.39435 1.28394.8169 2.55933 1.24448 3.83423.38 1.29175.85821 2.5498 1.2377 3.8457.41592 1.28247.831 2.56787 1.21976 3.86646.39407 1.29687.80362 2.58984 1.12662 3.92456-.73032-1.15747-1.384-2.353-2.03513-3.55176-.605-1.21826-1.2229-2.43433-1.76865-3.68091a77.21514 77.21514 0 01-2.92715-7.625 68.47028 68.47028 0 01-2.04453-7.92041A36.41353 36.41353 0 01349.29 340.80174z"/><path fill="#fff" d="M296.09,345.18195a5.64576,5.64576,0,0,0-.11005-1.11011h.01v.01A5.48681,5.48681,0,0,1,296.09,345.18195Z"/><path d="M287.55,342.48191c1.16.23,2.31.45,3.47.67l4.97.93a17.50951,17.50951,0,0,1-.48,4.54v.01l-5.35-1c-1.38-.26-2.75-.53-4.13-.81-.23-.03-.45-.08-.68-.13-1.66-.32-3.33-.64-4.99-.97a23.21524,23.21524,0,0,0,.1-4.63c1.43.29,2.87.57,4.3.85l.35.07"/></svg>