<svg xmlns="http://www.w3.org/2000/svg" enable-background="new 0 0 24 24" viewBox="0 0 24 24"><polygon fill="#42A5F5" fill-opacity=".8" points="14.084 1.012 3.231 11.864 6.574 15.207 20.769 1.012"/><polygon fill="#42A5F5" fill-opacity=".8" points="21.695 11.073 14.602 11.073 11.945 13.68 15.492 17.162"/><path fill="#0D47A1" d="M11.945,20.642l2.657,2.608h7.093l-6.203-6.088L11.945,20.642z"/><path fill="#42A5F5" d="M8.406,17.164l3.542-3.477l3.542,3.476l-3.542,3.477L8.406,17.164z"/><linearGradient id="a" x1="-2075.632" x2="-2075.632" y1="-1590.53" y2="-1590.52" gradientTransform="matrix(380.4042 -380.4175 53.104 53.1021 874056.25 -705127.375)" gradientUnits="userSpaceOnUse"><stop offset=".2" stop-opacity=".15"/><stop offset=".85" stop-color="#616161" stop-opacity=".01"/></linearGradient><path fill="url(#a)" d="M11.948,20.639l3.542-3.476l0.494,0.485l-3.542,3.476L11.948,20.639z"/><linearGradient id="b" x1="-2078.999" x2="-2078.989" y1="-1580.157" y2="-1580.157" gradientTransform="matrix(565.291 0 0 380.9571 1175251.25 601990.813)" gradientUnits="userSpaceOnUse"><stop offset=".2" stop-opacity=".55"/><stop offset=".85" stop-color="#616161" stop-opacity=".01"/></linearGradient><path fill="url(#b)" d="M11.945,20.642l5.263-1.785l-1.716-1.697L11.945,20.642z"/><path d="M21.25 24h-6.841c-.2 0-.392-.08-.533-.223l-6.003-6.066c-.29-.292-.289-.763 0-1.056l6.004-6.054c.141-.142.333-.223.534-.223h6.839c.303 0 .576.182.692.461.116.279.054.602-.159.816l-5.472 5.53 5.472 5.536c.213.215.275.537.159.816C21.826 23.818 21.553 24 21.25 24zM14.722 22.5h4.732l-4.731-4.787c-.289-.292-.289-.763 0-1.055l4.729-4.779h-4.729l-5.262 5.305L14.722 22.5zM6.683 16.219c-.2 0-.392-.08-.533-.223l-3.433-3.469c-.289-.292-.289-.763 0-1.055l11.147-11.25c.18-.181.43-.25.663-.211h6.708c.303 0 .576.182.692.461.116.279.054.602-.159.816L7.216 15.997C7.075 16.139 6.883 16.219 6.683 16.219zM4.306 12.001l2.377 2.402L19.438 1.511h-4.74L4.306 12.001z"/></svg>