<svg xmlns="http://www.w3.org/2000/svg" data-name="Layer 1" viewBox="0 0 700 550"><path d="M277.26141 235.17643a2.40292 2.40292 0 01-1.04.16065 7.65734 7.65734 0 01-2.34472-.86029q-2.85059-6.11248-5.6917-12.22474c-8.34838-18.10572-16.68741-36.21121-24.83716-54.41134l-12.20605-27.305c-3.97089-9.14254-8.03642-18.24722-11.9316-27.4373 4.48147 8.91586 8.79272 17.90721 13.1986 26.85123l12.92438 26.974c8.61325 17.98269 17.0183 36.05979 25.433 54.13712q2.14131 4.65171 4.28285 9.30342c-.71856.01869-1.19129.16065-1.25742.37809-.1041.331.86975.69017 2.74174 2.85531C276.77921 234.12709 277.01558 234.64691 277.26141 235.17643zM319.741 330.21419c-4.47213-8.90617-8.79272-17.89751-13.18926-26.84177l-12.92438-26.9738q-6.04151-12.60792-11.95064-25.26292c1.12516.17981 2.184.331 3.101.4538.00946-.00923.00946-.00923.00946 0q5.446 11.92722 10.80667 23.89182l12.20594 27.305C311.7802 311.92889 315.84573 321.0338 319.741 330.21419zM320.79132 229.93385l12.54846 1.90569c4.15726.61965 8.26681 1.2917 12.38183 1.94113l-.52983.33135.92549-3.30727a.50088.50088 0 01.53508-.36309l.01117.00127 3.40356.36275a10.39 10.39 0 013.48134.81077 9.52439 9.52439 0 014.97827 5.0882 9.84748 9.84748 0 01.53809 1.74031c.063.29742.11088.59784.1468.89953.04123.28576.06261.54071.119.80662a7.32407 7.32407 0 001.156 2.90678 7.04616 7.04616 0 005.411 2.74786l-.53268.1924a57.99961 57.99961 0 0110.205-7.36957 92.6743 92.6743 0 0111.20719-5.5772c1.93959-.76773 3.86762-1.562 5.84707-2.217 1.95569-.72156 3.95386-1.31178 5.94718-1.9125 1.98657-.62358 4.02315-1.06953 6.03055-1.61232 2.025-.47538 4.06761-.87171 6.09547-1.3277l-.20134.14645a15.04824 15.04824 0 001.18526-2.89743 9.2251 9.2251 0 00.42172-3.07079 4.95506 4.95506 0 00-.97273-2.82449 5.70837 5.70837 0 00-2.51083-1.68457l-.02124-.009a.22658.22658 0 01-.06838-.04559c-2.88192-2.81065-5.81813-5.56555-8.733-8.34215q-4.3769-4.16022-8.80415-8.26678l-8.88433-8.17734c-2.97906-2.68473-5.95584-5.45775-9.048-7.90969l-.01-.00785a.56.56 0 01-.09083-.78666.58054.58054 0 01.095-.09406l7.5041-5.83665-.23053.67251-6.58069-24.41937 1.17764.43845c-3.26569 2.25932-6.50126 4.57808-9.73455 6.89049q-4.85162 3.46912-9.62455 7.04087c-3.174 2.38939-6.31842 4.81779-9.37045 7.34405-1.52323 1.26481-3.01712 2.56263-4.4581 3.89853-.71914.66813-1.42348 1.35241-2.07038 2.066a9.0835 9.0835 0 00-1.60458 2.19077l.0474-.23671a42.16021 42.16021 0 01-.57725 5.11174 33.10664 33.10664 0 01-1.2508 4.99414 17.17333 17.17333 0 01-2.34055 4.668 7.73546 7.73546 0 01-4.38072 3.05636l.14253-.05529a11.67281 11.67281 0 00-2.8322 2.68208c-.424.51705-.792 1.08373-1.17033 1.63875-.32967.58814-.71318 1.14674-1.0013 1.76a30.77957 30.77957 0 00-2.69188 7.68222c-.3491 1.32274-.5036 2.687-.745 4.03575-.171 1.35887-.29085 2.72743-.41121 4.095-.04134 1.3696-.11627 2.75282-.13045 4.11527zm-.11335.10225l-.2529-4.17424c-.0346-1.3928-.00672-2.76622-.01291-4.15267.07314-1.38022.14621-2.7646.27161-4.14424.20093-1.37087.29506-2.76171.62422-4.1155a31.58047 31.58047 0 012.5759-7.94317c.28387-.64158.66817-1.23584.99878-1.85653.3817-.5916.75389-1.19383 1.18959-1.75277a12.46981 12.46981 0 013.08981-3.031.32944.32944 0 01.10018-.04466l.04269-.01085a6.69505 6.69505 0 003.67239-2.68647 15.98041 15.98041 0 002.09861-4.361 31.81855 31.81855 0 001.12941-4.81237 40.93257 40.93257 0 00.48533-4.92754l.00092-.02724a.59558.59558 0 01.04657-.20994 10.05546 10.05546 0 011.83927-2.656c.67921-.77119 1.3949-1.48571 2.12322-2.18315 1.45373-1.398 2.97752-2.70031 4.50867-3.98878 3.07442-2.56112 6.22638-5.01075 9.40617-7.42034q9.54942-7.21734 19.44116-13.94059l.00476-.00323a.76656.76656 0 011.06477.20266.78293.78293 0 01.10831.23914l6.33227 24.485.00222.00866a.633.633 0 01-.23287.6642l-7.60663 5.70242-.00588-.88844c3.17341 2.60844 6.04125 5.3885 8.995 8.14421l8.7368 8.34642 17.40808 16.75216-.08927-.05436a6.196 6.196 0 012.75547 1.82144 5.481 5.481 0 011.1131 3.115 9.77107 9.77107 0 01-.413 3.255 15.58118 15.58118 0 01-1.211 3.03593.2812.2812 0 01-.1835.14242l-.01812.00427c-2.015.47411-4.033.93588-6.03618 1.44958-1.98377.587-3.99535 1.07669-5.95316 1.74239-1.96452.64377-3.93257 1.27346-5.85454 2.03265-1.94643.69294-3.83744 1.52333-5.738 2.32556a107.94523 107.94523 0 00-10.99327 5.64022c-1.76252 1.061-3.50116 2.1648-5.16192 3.37121a48.9598 48.9598 0 00-4.772 3.80954l-.02193.02055a.65215.65215 0 01-.511.172 10.53154 10.53154 0 01-3.5162-.94 7.17766 7.17766 0 01-2.81938-2.41271 8.57684 8.57684 0 01-1.33161-3.41183c-.05932-.29315-.0852-.608-.12294-.887-.02926-.265-.06876-.5287-.1217-.78988a8.62748 8.62748 0 00-.4577-1.52864 8.33973 8.33973 0 00-4.32354-4.49556 9.71918 9.71918 0 00-3.14209-.78065l-3.39483-.43718.546-.36159-.99761 3.28626-.0032.01062a.46312.46312 0 01-.52688.32085c-4.18759-.77-8.38065-1.51757-12.526-2.31738z"/><path d="M373.39188 182.454c-1.20912-.64215-2.377-1.3404-3.54328-2.0398-1.17064-.69248-2.31394-1.42466-3.46712-2.13918l-3.434-2.17691c-.569-.36874-1.14919-.71464-1.73488-1.05153a6.41011 6.41011 0 00-1.83279-.83489 10.39895 10.39895 0 013.85736 1.37583c1.22268.61746 2.39464 1.32009 3.55113 2.04235 1.14916.73471 2.28636 1.48628 3.383 2.29717C371.273 180.73005 372.361 181.55237 373.39188 182.454zM380.669 175.84256a.434.434 0 01.45464-.161 2.19644 2.19644 0 01.42146.10641 6.46132 6.46132 0 01.77119.339c.49754.2531.97079.543 1.43986.83709.93533.59288 1.84354 1.22245 2.74281 1.86311 1.79406 1.28777 3.52243 2.65726 5.25114 4.02456 3.46575 2.72754 6.77914 5.62671 10.1077 8.51861a.63749.63749 0 01.21836.52432l-.00147.02008c-.10832 1.50244-.17338 3.005-.20783 4.49533a16.772 16.772 0 00.37327 4.33536 6.73781 6.73781 0 00.88623 1.89312l.27878.48565a.43944.43944 0 00.1865.16885 2.22822 2.22822 0 00.86623.21513 14.69257 14.69257 0 004.31774-.54717l.01108-.00266a.47528.47528 0 01.50738.20128l.35005.53471c.12441.1662.26216.31358.394.46754a1.12984 1.12984 0 00.87538.38629 1.461 1.461 0 00.84949-.62508 4.76181 4.76181 0 00.61134-1.10785l.003-.00761a.3284.3284 0 01.60976-.00162l.23772.58907a5.65867 5.65867 0 00.30651.52893.941.941 0 00.84089.47516 1.72634 1.72634 0 00.92913-.62335 5.59751 5.59751 0 00.71871-1.04194.26473.26473 0 01.35758-.11091.28164.28164 0 01.10153.09463 6.67805 6.67805 0 00.70852.98459 1.31265 1.31265 0 00.91046.48012 1.213 1.213 0 00.83862-.60026 4.26526 4.26526 0 00.52132-1.07738.24317.24317 0 01.42544-.07017 2.34969 2.34969 0 001.28143 1.00743c.48254.08518.94355-.31334 1.26166-.78838a3.717 3.717 0 00.585-1.61682c.066-.57729.04518-1.21968.06434-1.825a14.78332 14.78332 0 00-.4231-3.59753 4.34029 4.34029 0 00-.70881-1.54226 1.45917 1.45917 0 00-1.15127-.65751l-.05.00624a.21.21 0 01-.05964-.00162.971.971 0 01-.50612-.24006 2.61907 2.61907 0 01-.24453-.23128c-.1466-.15235-.27174-.30308-.39465-.45554-.24338-.30469-.46953-.612-.68826-.92238-.43756-.62023-.85037-1.24922-1.25711-1.88157-.80636-1.26827-1.57085-2.55639-2.32727-3.84948-.72675-1.32067-1.53833-2.52407-2.34741-3.78934L410.51393 178.29c-1.6268-2.49857-3.24587-5.00211-4.91027-7.47321-1.63655-2.48945-3.27642-4.97683-4.97648-7.41815-1.67057-2.46476-3.451-4.84272-5.20465-7.23615a49.39032 49.39032 0 00-5.80027-6.63935 9.542 9.542 0 00-3.55362-2.19976 3.71964 3.71964 0 00-1.93619.22251 13.41312 13.41312 0 00-1.98094.88025 45.768 45.768 0 00-7.28662 5.08763.07634.07634 0 01-.10779-.00623.07891.07891 0 01.00438-.10607 42.635 42.635 0 017.01606-5.63745 14.21011 14.21011 0 012.05931-1.0371 4.562 4.562 0 012.4443-.36112 10.03341 10.03341 0 014.11039 2.26359 50.51412 50.51412 0 016.174 6.64188c1.87427 2.34692 3.6389 4.77463 5.34811 7.23107q1.29917 1.83282 2.54643 3.69737c.84047 1.23768 1.68529 2.47225 2.48966 3.73233 1.62867 2.50849 3.20908 5.045 4.79724 7.57661l2.356 3.82559c.77621 1.264 1.58243 2.57 2.2599 3.88583q1.06524 1.95989 2.1867 3.88364c.37243.64042.751 1.27739 1.14671 1.89531.19756.309.40091.61226.61065.90045.1047.143.2127.28426.31966.40556a1.76466 1.76466 0 00.15347.16146c.03849.04882.101.04709-.026.03439l-.1093.00462a2.24866 2.24866 0 011.97085 1.0663 5.11291 5.11291 0 01.77678 1.84822 15.42541 15.42541 0 01.303 3.79869c-.04328.63454-.05073 1.23838-.127 1.89542a4.26393 4.26393 0 01-.70157 1.8443 2.89856 2.89856 0 01-.71435.73218 1.46845 1.46845 0 01-1.06892.25356 2.77871 2.77871 0 01-1.59021-1.22638l.42526-.07017a4.70835 4.70835 0 01-.60309 1.20237 1.727 1.727 0 01-1.18278.80524 1.76427 1.76427 0 01-1.30217-.605 7.108 7.108 0 01-.80151-1.06595l.45891-.01639a6.10161 6.10161 0 01-.77367 1.16937 2.24186 2.24186 0 01-1.251.82912 1.51892 1.51892 0 01-1.41089-.6807c-.1378-.20048-.26418-.4081-.38083-.615l-.29393-.63742.61264-.00935a5.40518 5.40518 0 01-.6462 1.31859 2.17726 2.17726 0 01-1.28668.97535 1.917 1.917 0 01-1.594-.53055c-.17742-.18039-.36026-.36228-.518-.55375l-.43026-.59241.51817.19851a15.50271 15.50271 0 01-4.64732.79531 3.32 3.32 0 01-1.3355-.29084 1.6433 1.6433 0 01-.66195-.566l-.31089-.48669A7.38763 7.38763 0 01401.006 201.098a17.89042 17.89042 0 01-.49015-4.69719c-.00979-1.544.11247-3.07182.245-4.59342l.21672.54417q-2.43221-2.214-4.90758-4.39469l-4.94786-4.35163q-2.47872-2.16989-5.02507-4.25481c-.84612-.69744-1.70133-1.38415-2.58164-2.03311-.44007-.32443-.88946-.63489-1.349-.924a6.19171 6.19171 0 00-.706-.3924c-.22264-.10122-.54311-.22194-.65838-.08356l-.00986.01189a.07556.07556 0 01-.12318-.08667z"/><path d="M380.6469 175.54641a28.09876 28.09876 0 013.48806-3.30808c.623-.49916 1.25006-.99266 1.90215-1.4557.64322-.47481 1.32338-.90057 2.00786-1.33325a21.29553 21.29553 0 01-3.428 3.38A25.84867 25.84867 0 01380.6469 175.54641zM420.71681 192.963c-.459-.05586-.58609.4568-.67083.81712a9.51484 9.51484 0 00-.15087 1.21945c-.05644.82416-.0533 1.66356-.06034 2.50007l-.01722 2.52615c-.02046.84563-.03742 1.69519-.131 2.55328a20.57426 20.57426 0 01-.61443-5.084 13.96236 13.96236 0 01.2353-2.57636 6.00212 6.00212 0 01.388-1.26273 2.48108 2.48108 0 01.389-.56413A.5012.5012 0 01420.71681 192.963zM415.90875 194.0885a22.59093 22.59093 0 01.5528 4.3678 22.32673 22.32673 0 01-.20936 4.39757 22.32767 22.32767 0 01-.5528-4.36768A22.59267 22.59267 0 01415.90875 194.0885zM408.71836 200.44019c.104-.01892.23636-.03785.36874-.06624-.03785 1.00224-.07559 2.01395-.13238 3.02566a.053.053 0 01-.05678.04709.04313.04313 0 01-.03774-.04709C408.80353 202.41629 408.75621 201.433 408.71836 200.44019z"/><path d="M419.79913,194.05833a.04889.04889,0,0,1-.02839.06625.04142.04142,0,0,1-.0472-.00947,6.35161,6.35161,0,0,0-.936-.77534,1.51065,1.51065,0,0,0-.94546-.26476,1.57665,1.57665,0,0,0-.82255.44434,3.93846,3.93846,0,0,0-.67124.8132l-.02839.03786a.47739.47739,0,0,1-.66178.16065.43808.43808,0,0,1-.15142-.142,2.55773,2.55773,0,0,0-1.60723-1.24784,2.01851,2.01851,0,0,0-1.81522,1.07773.16828.16828,0,0,1-.07571.06624.07087.07087,0,0,1-.04732.00947.033.033,0,0,1-.01892-.00947.07077.07077,0,0,1-.04721-.00946.16138.16138,0,0,1-.05667-.05678,2.45,2.45,0,0,0-1.11569-1.13451.937.937,0,0,0-1.07784.34993,1.629,1.629,0,0,0-.32142.5766,2.46923,2.46923,0,0,0-.0756.34047v.42541l-.03786,1.59777c-.13237.00947-.25529.01893-.3782.01893-.08506,0-.17024.00947-.2553.00947l-.0472-1.62617-.00946-.43487a3.01685,3.01685,0,0,1,.03785-.51059,2.21145,2.21145,0,0,1,.44434-.95492,1.66658,1.66658,0,0,1,.94546-.55791,1.37451,1.37451,0,0,1,1.06826.27422,3.99547,3.99547,0,0,1,.94546,1.28593,4.68659,4.68659,0,0,1,.67136-.84159,1.98427,1.98427,0,0,1,1.27635-.62392,2.20407,2.20407,0,0,1,1.40873.42541c.189.142.36874.29315.539.44434a3.51565,3.51565,0,0,1,.53887-.51982,2.13883,2.13883,0,0,1,1.43712-.49166,1.86058,1.86058,0,0,1,1.29527.66178A3.29494,3.29494,0,0,1,419.79913,194.05833Z"/><path d="M412.50966 196.28972c-.23636-.00969-.47273-.01893-.728-.01893a14.07141 14.07141 0 01.16066-1.98556.726.726 0 01.01892-.14172c.01893.04708.0284.0944.04732.14172A15.15559 15.15559 0 01412.50966 196.28972zM412.67978 202.91718a15.747 15.747 0 01-.71856-3.328c.30262-.11333.59576-.23636.86987-.36863A16.19981 16.19981 0 01412.67978 202.91718zM366.47522 249.49084l-.643-3.02566s10.57031-12.07356 43.07515-19.90178l1.85307-.28368a42.42861 42.42861 0 013.70636 2.685c-2.16514.3594-4.33975.77534-6.50489 1.16313-2.14621.50089-4.31124.97362-6.448 1.5126l-3.1862.89814-1.59778.45381-1.56961.52-1.90973.63362a.4972.4972 0 00-.312-.02862.47719.47719 0 00-.30262.23636l-.62392.20821c-1.0401.36863-2.06115.77511-3.10114 1.1629-2.69465 1.08719-5.3608 2.269-7.96082 3.57364-.26476-.8319-.50112-1.67326-.69017-2.53377a19.71111 19.71111 0 00.37821 2.68519c-1.23861.63338-2.47722 1.29539-3.678 2.00449l-2.81746 1.749c-.89814.64285-1.8436 1.21968-2.71335 1.90039A33.68791 33.68791 0 00366.47522 249.49084z"/><path d="M507.1975 303.24963s-.36863-6.95847-61.91824 19.4198c0 0-15.68505-14.74928-16.47932-51.953-.05678-2.60948.02839-5.219.16066-7.819a45.13242 45.13242 0 00-1.021-11.74278c-.24582.25529-.49165.52951-.75641.7848a9.94388 9.94388 0 01-.85094.68071 8.48147 8.48147 0 01-1.92866 1.059 7.9002 7.9002 0 01-2.203.416 6.33 6.33 0 01-2.26913-.31207.34765.34765 0 01-.21744-.25507l-.00946-.03785a37.28089 37.28089 0 00-1.07784-4.21672c-.416-1.39-.89814-2.77037-1.37087-4.1507l-1.50337-4.13178-1.55045-4.10315-.00947-.0284a.28993.28993 0 01.16066-.36862h.00946c.94546-.34047 1.89092-.68094 2.84585-.98332.95492-.32154 1.90985-.64308 2.87424-.93623a38.39977 38.39977 0 00-5.616-5.60652l-6.42918 1.5223c-2.11782.5766-4.25457 1.10611-6.3724 1.72057-2.70412.82266-5.408 1.65456-8.07427 2.58132.08517.3497.24583.97385.47273 1.8436a.48567.48567 0 01-.34035.5766.63046.63046 0 01-.12292.01893.46381.46381 0 01-.4538-.35916c-.208-.8132-.35928-1.40873-.4538-1.76812-1.17237.41594-2.34473.86051-3.49828 1.33324q-4.0844 1.5882-8.03642 3.50763c.04732.13226.08506.27422.13238.40648a26.96508 26.96508 0 001.43712 3.40375 23.43478 23.43478 0 004.22618 5.94676 21.3627 21.3627 0 002.77014 2.36365 22.3917 22.3917 0 003.20524 1.75866 26.9792 26.9792 0 007.10989 1.98556c-.28369-.00946-.57683-.02839-.86052-.04732a.65659.65659 0 01.09464.17958l.60511 2.13676a.45668.45668 0 01-.32143.57683.32205.32205 0 01-.13249.01893.48244.48244 0 01-.4538-.34047l-.605-2.13675a.46738.46738 0 01.13227-.47273c-.10387-.00947-.21744-.00947-.33078-.01893a10.41024 10.41024 0 01-1.87211-.19851 19.0156 19.0156 0 01-3.64946-1.01171 17.925 17.925 0 01-3.4131-1.69218 19.66169 19.66169 0 01-7.15709-8.74552 25.09552 25.09552 0 01-1.2954-3.9238c-1.19129.58607-2.36365 1.19129-3.52655 1.83414l-2.84584 1.65456c-.91707.59576-1.872 1.1442-2.76068 1.79651a36.96822 36.96822 0 00-5.17164 4.075c1.85307 3.5644 3.61161 7.16643 5.35123 10.78762 1.73026 3.621 3.39428 7.27054 5.06777 10.92013q.46776 1.04944.936 2.09889c.07548.00947 2.73228 6.16443 3.90464 8.9251 1.5695 3.68744 3.1106 7.39357 4.56665 11.13756 0 0 23.07862 65.20842 56.047 66.67393 0 0 17.58544-1.46551 64.849-20.14783C507.1975 339.88624 512.69069 307.64593 507.1975 303.24963zm-112.93528-62.0602q-.312-1.17687-.56725-2.15545a.48614.48614 0 01.34035-.57683.47088.47088 0 01.57683.34047c.17012.65231.35917 1.37087.56714 2.14621a.47039.47039 0 01-.34024.5766.55344.55344 0 01-.123.01893A.47379.47379 0 01394.26222 241.18943zm1.144 4.30212l-.5766-2.15591a.47352.47352 0 01.91707-.23636l.56725 2.137a.46766.46766 0 01-.33089.58607.49963.49963 0 01-.12291.00946A.46559.46559 0 01395.40619 245.49155zm.57683 2.13652a.47667.47667 0 01.33089-.5766.48687.48687 0 01.58618.331l.57672 2.10836-.90761.28345zm2.36366 6.76019a.6394.6394 0 01-.13238.01893.47409.47409 0 01-.45392-.34993l-.59553-2.13675a.47149.47149 0 01.33089-.58607.465.465 0 01.57672.33077l.59564 2.13675A.47377.47377 0 01398.34668 254.38826zM400.663 262.935a.46529.46529 0 01-.4538-.34023l-.62392-2.12729a.48138.48138 0 01.3213-.5863.46268.46268 0 01.5863.32154l.62392 2.12729a.46956.46956 0 01-.32142.5863A.34815.34815 0 01400.663 262.935zm1.25754 4.25458a.48547.48547 0 01-.45381-.33077l-.63361-2.12729a.47413.47413 0 11.90772-.27422l.6335 2.12729a.47253.47253 0 01-.31208.58629A.37112.37112 0 01401.92055 267.18961zm1.28569 4.24534a.454.454 0 01-.44433-.331l-.65232-2.11783a.47546.47546 0 11.90761-.28368l.643 2.12729a.47245.47245 0 01-.312.58629A.36783.36783 0 01403.20624 271.435zm1.31432 4.24511a.46512.46512 0 01-.44433-.331l-.6619-2.11782a.46356.46356 0 01.312-.59553.47229.47229 0 01.5863.31184l.66178 2.11782a.465.465 0 01-.31208.5863A.379.379 0 01404.52056 275.68006zm1.35195 4.22619a.47692.47692 0 01-.4538-.331c-.2269-.69963-.45381-1.40873-.68071-2.10836a.47061.47061 0 01.312-.59553.48143.48143 0 01.59565.30238c.21744.7091.44434 1.409.67124 2.10836a.46586.46586 0 01-.3025.59576A.37866.37866 0 01405.87251 279.90625zm1.37087 4.20725a.47711.47711 0 01-.4538-.32154l-.69017-2.10836a.47239.47239 0 01.89814-.29315l.69017 2.09913a.46222.46222 0 01-.30238.59553A.37971.37971 0 01407.24338 284.1135zm1.41819 4.21672a.4768.4768 0 01-.4538-.32154c-.23636-.6994-.47273-1.4085-.7091-2.10836a.4695.4695 0 11.8888-.30238c.23636.69963.48208 1.39926.71844 2.10836a.47846.47846 0 01-.44434.62392zm1.44659 4.18833a.47821.47821 0 01-.44434-.31185c-.24583-.69963-.49166-1.39926-.728-2.09889a.471.471 0 11.88868-.31208c.24583.69963.4822 1.39927.728 2.08943a.46613.46613 0 01-.28357.60523A.47915.47915 0 01410.10816 292.51855zm1.4939 4.17909a.48772.48772 0 01-.44434-.31207c-.24583-.69017-.50112-1.3898-.74695-2.08943a.46933.46933 0 01.28368-.605.48538.48538 0 01.605.28346c.24583.69963.50112 1.39926.747 2.08943a.46967.46967 0 01-.28369.60522A.44118.44118 0 01411.60206 296.69764zm1.55045 4.15994a.47861.47861 0 01-.44434-.30261c-.25529-.69017-.52-1.3898-.77522-2.08a.47492.47492 0 01.2741-.61446.46618.46618 0 01.60523.28369c.26464.69017.51993 1.38033.78457 2.0705a.49127.49127 0 01-.2741.61446A.53462.53462 0 01413.15251 300.85758zm1.77759 4.10339a.53594.53594 0 01-.17023.02839.47023.47023 0 01-.44446-.29315c-.2741-.68071-.53886-1.37087-.813-2.07051a.47583.47583 0 11.88867-.34046c.26476.69016.52952 1.38033.80362 2.06127A.47054.47054 0 01414.9301 304.961zm1.68283 4.10315a.45008.45008 0 01-.189.03785.4665.4665 0 01-.435-.29314c-.28357-.67124-.56714-1.36141-.84136-2.05158a.4705.4705 0 01.86975-.35917c.28368.69017.56737 1.37088.85094 2.05158A.47741.47741 0 01416.61293 309.06412zm1.75855 4.075a.44978.44978 0 01-.18905.03786.47889.47889 0 01-.43487-.27422c-.29315-.67124-.59576-1.352-.8888-2.04212a.47429.47429 0 01.86987-.37832c.29315.69017.58618 1.36164.87921 2.03288A.46671.46671 0 01418.37148 313.13911zm1.86253 4.02768a.51424.51424 0 01-.208.04731.4863.4863 0 01-.42541-.27422c-.31207-.65231-.624-1.333-.936-2.01372a.46324.46324 0 01.2269-.62415.47255.47255 0 01.63338.23637c.30261.67124.61469 1.34248.936 1.995A.47634.47634 0 01420.234 317.16679zm1.995 3.97089a.64982.64982 0 01-.2269.04731.46437.46437 0 01-.41606-.25529c-.34035-.64285-.67124-1.30462-1.01159-1.98533a.47353.47353 0 11.85082-.416c.331.67125.67135 1.32356 1.00224 1.96641A.47924.47924 0 01422.229 321.13768zm2.15568 3.87648a.5421.5421 0 01-.23636.05678.45945.45945 0 01-.4066-.2269c-.36875-.63362-.73749-1.27646-1.10623-1.9477a.47386.47386 0 01.832-.45381c.35928.66178.728 1.30463 1.0873 1.91932A.47744.47744 0 01424.38471 325.01416zm2.40139 3.72506a.486.486 0 01-.26464.08517.46419.46419 0 01-.38778-.208c-.416-.5863-.82243-1.21022-1.2385-1.86276a.476.476 0 01.80362-.51036c.39714.64285.80374 1.25731 1.21022 1.84361A.472.472 0 01426.7861 328.73922zm2.77972 3.45084a.4808.4808 0 01-.67124-.02816c-.47273-.52951-.96439-1.10612-1.43712-1.73027a.4718.4718 0 11.74684-.5766c.46326.59553.936 1.1629 1.38991 1.67348A.46518.46518 0 01429.56582 332.19006zm3.413 2.77037a.48136.48136 0 01-.65232.16065 12.40887 12.40887 0 01-1.82467-1.37087.46619.46619 0 01-.04732-.66178.47757.47757 0 01.67124-.04732 11.75363 11.75363 0 001.69241 1.267A.47451.47451 0 01432.97881 334.96043zm3.763 1.664c-.02839 0-.05667-.00947-.08506-.00947a17.19282 17.19282 0 01-2.21246-.5579.473.473 0 01-.3025-.59553.48129.48129 0 01.59564-.30261 15.6787 15.6787 0 002.08944.52005.47707.47707 0 01-.08506.94546zm4.40588.397h-.00946q-1.17721-.01421-2.24086-.11334a.46989.46989 0 01-.43487-.51058.46191.46191 0 01.51058-.42564c.69017.05678 1.41819.09463 2.18407.1041a.487.487 0 01.46327.48219A.472.472 0 01441.14772 337.02147zm4.472-.15119c-.76588.05678-1.51283.10387-2.24085.13226h-.01881a.47292.47292 0 01-.01893-.94546c.71856-.02839 1.44658-.07548 2.20288-.13226a.47434.47434 0 01.07571.94546zm4.43416-.51059c-.747.11357-1.48432.208-2.21235.29315h-.05667a.47873.47873 0 01-.47273-.416.484.484 0 01.416-.52951q1.07784-.11357 2.18407-.28369a.48453.48453 0 01.53886.40649A.46862.46862 0 01450.05389 336.35969zm4.39642-.747c-.73738.14173-1.47486.27422-2.19342.397a.256.256 0 01-.08518.0097.4748.4748 0 01-.46326-.38779.48044.48044 0 01.38767-.54844c.71856-.1228 1.44646-.2553 2.17449-.397a.48623.48623 0 01.5579.37809A.47175.47175 0 01454.45031 335.61274zm4.35856-.91707c-.728.16066-1.45605.32154-2.17461.47273a.38626.38626 0 01-.10387.00947.4675.4675 0 01-.09464-.92654q1.07784-.22713 2.15568-.48219a.47589.47589 0 01.21744.92653zm4.32082-1.06849c-.728.18928-1.44658.36886-2.15568.54844a.4747.4747 0 01-.11345.01893.4748.4748 0 01-.11345-.936c.70909-.17958 1.42765-.35939 2.14621-.539a.46506.46506 0 01.57661.331A.47041.47041 0 01463.12969 333.62718zm4.283-1.17213c-.7091.20774-1.42766.40648-2.13676.605a.53924.53924 0 01-.123.00947.47127.47127 0 01-.12279-.92654q1.06363-.2839 2.12728-.59576a.47154.47154 0 11.2553.90784zm4.264-1.25754c-.70909.21744-1.41819.43488-2.12728.64285a.63937.63937 0 01-.1325.01893.46524.46524 0 01-.4538-.34047.47021.47021 0 01.32154-.58607c.7091-.208 1.40873-.42541 2.11782-.63361a.46964.46964 0 01.27422.89837zm4.24512-1.34248c-.69964.22667-1.40873.4538-2.10848.68047a.36693.36693 0 01-.14184.01893.47012.47012 0 01-.15119-.91684c.70909-.22713 1.40873-.454 2.11782-.68093a.48112.48112 0 01.59553.30261A.471.471 0 01475.92181 329.855zm4.21672-1.39926l-2.0989.70909a.44776.44776 0 01-.15142.0187.46973.46973 0 01-.15119-.91707l2.09889-.7091a.47872.47872 0 01.60511.29315A.49206.49206 0 01480.13853 328.45577zm4.19779-1.46575q-1.03526.36909-2.0989.73772a.42763.42763 0 01-.1513.02816.465.465 0 01-.44434-.32131.46969.46969 0 01.28357-.60522c.70909-.23637 1.39926-.49166 2.08954-.73726a.47689.47689 0 01.32143.89791zm4.179-1.52206c-.69029.25529-1.38045.51059-2.08955.76588a.47882.47882 0 01-.16065.02839.4652.4652 0 01-.44434-.31207.47718.47718 0 01.28357-.605c.69974-.25529 1.39937-.51058 2.08008-.76588a.47355.47355 0 01.605.28346A.46139.46139 0 01488.5153 325.468zm4.15059-1.56938c-.67125.26476-1.37088.52928-2.07062.794a.53467.53467 0 01-.17024.02839.47873.47873 0 01-.44434-.30238.4917.4917 0 01.27422-.61469c.7091-.26476 1.39927-.52951 2.08-.78458a.46973.46973 0 11.331.87922zm4.141-1.61693c-.67124.265-1.35194.539-2.061.81319a.38331.38331 0 01-.17958.03786.46587.46587 0 01-.43487-.30261.47828.47828 0 01.26464-.61446c.70909-.27422 1.39926-.54844 2.07062-.8132a.4714.4714 0 01.605.26476A.46285.46285 0 01496.80689 322.28165zm4.13178-1.65456c-.66178.265-1.35206.54844-2.06116.83213a.438.438 0 01-.17969.03785.47195.47195 0 01-.17959-.9076c.71856-.29315 1.39927-.56737 2.061-.84159a.475.475 0 01.3594.87921zm4.10327-1.71111c-.624.26476-1.31421.55791-2.05169.86029a.40883.40883 0 01-.17959.03785.47158.47158 0 01-.43487-.29315.46467.46467 0 01.25529-.61445c.73737-.30262 1.41819-.59576 2.04212-.86052a.48039.48039 0 01.624.25529A.462.462 0 01505.04194 318.916zm4.0938-1.75866c-.40648.17958-1.10611.4822-2.04211.88868a.42354.42354 0 01-.18916.03785.471.471 0 01-.1797-.9076c.92665-.397 1.62628-.69963 2.03288-.87922a.46989.46989 0 11.37809.86029zM420.08282 234.5712c-.90761.44457-1.82468.851-2.74186 1.267-.82255.37833-1.6451.728-2.47711 1.078.57672 1.24807 1.15344 2.49591 1.664 3.77238.57672 1.36141 1.10612 2.73228 1.59778 4.12208.51058 1.38034.96439 2.78929 1.38033 4.20749a31.90628 31.90628 0 01.91719 4.11261 5.816 5.816 0 001.77747.34047 7.18494 7.18494 0 002.05158-.25529 8.67612 8.67612 0 001.93824-.8132 12.52029 12.52029 0 001.74919-1.24807A39.64315 39.64315 0 00420.08282 234.5712zM381.196 282.45894l-3.73464-8.18761c-.03774-.01892-1.25742-2.7609-1.25742-2.7609l-4.91647-10.98614c-1.6167-3.66851-3.24287-7.33678-4.81225-11.03345 0 0-70.28566 81.60257-108.38779 145.34571 0 0 8.547 6.46681 17.41543 12.499v-.00946l1.22915-1.84384a.47344.47344 0 01.66178-.12279.46068.46068 0 01.12291.65231l-1.22915 1.84383-.00946.00923c7.507 5.06778 15.06125 9.68175 17.70858 9.68175 0 0 38.47088-62.6465 45.06071-72.16712 6.5993-9.53032 43.22646-43.96394 47.25413-52.01929C384.56178 289.74841 382.87883 286.09883 381.196 282.45894zM279.98446 402.334l-1.22915 1.83413a.47843.47843 0 01-.39714.21744.43506.43506 0 01-.25529-.08517.463.463 0 01-.13238-.65231l1.22915-1.84361a.484.484 0 01.66178-.13226A.47348.47348 0 01279.98446 402.334zm2.477-3.67775l-1.23849 1.83414a.45332.45332 0 01-.38767.208.43413.43413 0 01-.26476-.07571.47093.47093 0 01-.13226-.65232l1.23849-1.8436a.47134.47134 0 01.65243-.13249A.48433.48433 0 01282.46144 398.65625zm2.46776-3.678l-1.23861 1.83414a.46361.46361 0 01-.38767.208.43328.43328 0 01-.26464-.07548.48456.48456 0 01-.1325-.662l1.23861-1.83414a.47266.47266 0 01.65231-.13227A.48424.48424 0 01284.9292 394.97828zm2.46752-3.68721l-1.23849 1.84361a.464.464 0 01-.38767.208.50825.50825 0 01-.26476-.07571.48408.48408 0 01-.13226-.66178L286.612 390.771a.47069.47069 0 11.78469.52zm2.46776-3.678l-1.23861 1.8436a.46133.46133 0 01-.65231.123.471.471 0 01-.13238-.65231l1.23849-1.83437a.46624.46624 0 01.65243-.13226A.47116.47116 0 01289.86448 387.6131zm2.46764-3.67774L291.103 385.779a.49337.49337 0 01-.39713.208.47406.47406 0 01-.38756-.73749l1.22915-1.8436a.47336.47336 0 01.78469.52951zm2.46764-3.678l-1.22915 1.83437a.47881.47881 0 01-.397.21743.48587.48587 0 01-.26476-.08517.46082.46082 0 01-.12291-.65231l1.229-1.84361a.48442.48442 0 01.66189-.13249A.47349.47349 0 01294.79976 380.25739zm2.46764-3.67775l-1.229 1.83414a.47077.47077 0 11-.78481-.52l1.22915-1.8436a.48422.48422 0 01.66177-.13249A.47365.47365 0 01297.2674 376.57964zm2.4771-3.6872l-1.23861 1.84337a.493.493 0 01-.397.20821.42423.42423 0 01-.25529-.07572.48409.48409 0 01-.13238-.66177l1.23849-1.83437a.4708.4708 0 01.78481.52028zm2.46764-3.678l-1.23849 1.8436a.47679.47679 0 01-.38768.208.5058.5058 0 01-.26475-.07571.48392.48392 0 01-.13238-.66154l1.23861-1.83437a.47069.47069 0 01.78469.52005zm2.46764-3.678l-1.23849 1.84384a.464.464 0 01-.38768.208.44226.44226 0 01-.26475-.08517.47094.47094 0 01-.13227-.65232l1.2385-1.8436a.4733.4733 0 01.78469.52928zm2.46775-3.67774l-1.2386 1.8436a.46078.46078 0 01-.65232.123.47149.47149 0 01-.13249-.65254l1.23861-1.8436a.46383.46383 0 01.65231-.1228A.47118.47118 0 01307.14753 361.85875zm2.46753-3.67774l-1.229 1.83414a.47885.47885 0 01-.39714.21743.46344.46344 0 01-.26475-.08517.471.471 0 01-.13227-.65231l1.2385-1.84361a.47473.47473 0 01.65243-.13249A.48429.48429 0 01309.61506 358.181zm2.46775-3.678l-1.22914 1.83413a.46886.46886 0 01-.397.20821.4523.4523 0 01-.26476-.07571.4624.4624 0 01-.123-.65231l1.22915-1.84384a.47341.47341 0 11.7848.52952zm2.46764-3.68721l-1.22914 1.8436a.4934.4934 0 01-.39714.208.56348.56348 0 01-.26464-.07571.47325.47325 0 01-.12291-.66178l1.22914-1.83414a.484.484 0 01.66178-.13226A.46077.46077 0 01314.55045 350.81583zm2.46764-3.678l-1.22914 1.84383a.49352.49352 0 01-.397.208.50045.50045 0 01-.2553-.07571.47553.47553 0 01-.13237-.66177l1.229-1.83414a.48442.48442 0 01.66189-.1325A.46088.46088 0 01317.01809 347.13786zm2.47711-3.67775l-1.2385 1.84361a.47621.47621 0 01-.38778.208.442.442 0 01-.26465-.08517.47117.47117 0 01-.13237-.65232l1.23861-1.8436a.47337.47337 0 01.78469.52951zm2.46764-3.67774l-1.23861 1.8436a.47641.47641 0 01-.38756.208.442.442 0 01-.26476-.08518.47105.47105 0 01-.13237-.65231l1.23849-1.8436a.46258.46258 0 01.65243-.123A.47127.47127 0 01321.96284 339.78237zm2.46764-3.678l-1.2385 1.83414a.442.442 0 01-.38767.2082.43386.43386 0 01-.26476-.07571.473.473 0 01-.13237-.65231l1.2386-1.84383a.47264.47264 0 01.65232-.13227A.48411.48411 0 01324.43048 336.1044zm2.79864-3.35643l-1.45605 1.67348a.4251.4251 0 01-.34981.16089.46805.46805 0 01-.35928-.77535l1.44658-1.67348a.47273.47273 0 01.71856.61446zm2.90251-3.34674l-1.45593 1.67325a.454.454 0 01-.34993.16089.46955.46955 0 01-.312-.11357.47724.47724 0 01-.0472-.67124l1.44646-1.67348a.48727.48727 0 01.67136-.04732A.47771.47771 0 01330.13163 329.40123zm2.90252-3.347l-1.45605 1.67348a.45391.45391 0 01-.3497.16066.46983.46983 0 01-.31207-.11357.47757.47757 0 01-.04732-.67124l1.44658-1.67348a.47589.47589 0 01.71856.62415zm2.90263-3.347l-1.45605 1.67348a.45412.45412 0 01-.34981.16066.46953.46953 0 01-.312-.11357.47757.47757 0 01-.04732-.67124l1.44658-1.67348a.47589.47589 0 01.71856.62415zm2.90263-3.347l-1.45605 1.67348a.45435.45435 0 01-.34993.16066.46977.46977 0 01-.312-.11357.47745.47745 0 01-.0472-.67124l1.44658-1.67348a.47589.47589 0 01.71856.62415zm2.9024-3.35643l-1.45593 1.67348a.45064.45064 0 01-.66189.04732.46636.46636 0 01-.04721-.662l1.44658-1.67325a.47715.47715 0 01.67124-.04732A.46645.46645 0 01341.74181 316.00389zm2.90263-3.347l-1.456 1.67348a.45051.45051 0 01-.66177.04732.46619.46619 0 01-.04732-.66178l1.44658-1.67348a.47757.47757 0 01.67124-.04732A.46609.46609 0 01344.64444 312.65692zm2.90263-3.34674l-1.45605 1.67325a.4251.4251 0 01-.34981.16089.468.468 0 01-.35928-.77534l1.44658-1.67349a.47757.47757 0 01.67124-.04732A.46647.46647 0 01347.54707 309.31018zm2.90251-3.347l-1.45593 1.67348a.42576.42576 0 01-.34993.16066.468.468 0 01-.35916-.77534l1.44646-1.67349a.4728.4728 0 01.71856.61469zm2.90252-3.347l-1.45593 1.67349a.472.472 0 01-.66189.04708.47745.47745 0 01-.04721-.67124l1.44647-1.67348a.47589.47589 0 01.71856.62415zm2.90263-3.347l-1.45605 1.67349a.45414.45414 0 01-.34981.16065.46953.46953 0 01-.312-.11357.47756.47756 0 01-.04732-.67124l1.44658-1.67348a.47589.47589 0 01.71856.62415zm2.90263-3.347l-1.45605 1.67349a.48458.48458 0 01-.34993.16065.47019.47019 0 01-.31184-.11333.47762.47762 0 01-.04732-.67148l1.44658-1.67325a.47582.47582 0 01.71856.62392zm2.90251-3.347l-1.456 1.67349a.47232.47232 0 01-.66189.04732.47746.47746 0 01-.04721-.67124l1.44658-1.67349a.47582.47582 0 11.71856.62392zm2.90252-3.3562l-1.45605 1.68272a.48768.48768 0 01-.35916.16065.46323.46323 0 01-.30261-.11333.47757.47757 0 01-.04732-.67124l1.44658-1.67349a.47757.47757 0 01.67124-.04732A.46685.46685 0 01364.96239 289.21913zm2.90263-3.347l-1.45605 1.67349a.4617.4617 0 01-.34981.17011.43485.43485 0 01-.312-.123.46618.46618 0 01-.04732-.66177l1.44658-1.67349a.47757.47757 0 01.67124-.04732A.46648.46648 0 01367.865 285.87216zm2.90251-3.347l-1.45593 1.67349a.45119.45119 0 01-.34993.16065.468.468 0 01-.35916-.77534l1.44646-1.67349a.47772.47772 0 01.67136-.04732A.46637.46637 0 01370.76753 282.52519zm2.90252-3.347l-1.45593 1.67349a.4563.4563 0 01-.35928.16065.46783.46783 0 01-.34982-.77511l1.44647-1.67348a.47749.47749 0 01.67136-.04732A.466.466 0 01373.67005 279.17822zm2.90263-3.347l-1.45605 1.67349a.48871.48871 0 01-.35916.16065.46775.46775 0 01-.34993-.77511l1.44658-1.683a.48627.48627 0 01.67124-.04732A.47757.47757 0 01376.57268 275.83125zM341.0629 200.33764a.382.382 0 01-.20128-.05725 10.87625 10.87625 0 00-10.25465-.93345.38129.38129 0 01-.35317-.67586 11.43564 11.43564 0 0111.0113.96116.38148.38148 0 01-.2022.7054zM346.60417 230.9466c.16512-1.9896.40687-3.93246.60467-5.88652.22512-1.95209.37681-3.89875.63169-5.88177a21.40283 21.40283 0 01.12671 5.96291A22.05373 22.05373 0 01346.60417 230.9466zM349.3837 210.92052a.40971.40971 0 01-.09418-.01108.3817.3817 0 01-.27607-.46349c1.22522-4.839-3.68628-8.96249-3.73568-9.00312a.38173.38173 0 01.48566-.58907c.21836.181 5.33253 4.47709 3.98959 9.77869A.38087.38087 0 01349.3837 210.92052zM297.19971 166.04522a2.30533 2.30533 0 013.01262.06979s1.70689-4.04205 12.82937-3.27614c0 0-.80873 2.94157-1.79585 3.15578s2.8609 4.13379 5.4833 3.358c0 0 5.976 5.62839 3.9134 12.79445-2.03291 7.063-4.04329 9.60264-8.31108 6.23355a2.62009 2.62009 0 00-.421-.2745c-1.14519-.59024-6.16825-2.98766-7.15345-.17343a2.47733 2.47733 0 00.13867 1.88563c1.32794 2.76263 6.90972 12.78806 15.40258 6.46057 0 0 10.08686-6.50043 5.38015-15.69313a12.46529 12.46529 0 00-1.81074-2.57692 7.79867 7.79867 0 01-1.8682-5.88586 6.16214 6.16214 0 011.77756-3.96438c1.02842-1 2.52437-1.67194 4.16229.14488a5.87123 5.87123 0 011.36665 2.66893 3.18146 3.18146 0 01-.36052 2.7578l1.30144 1.57808a12.43058 12.43058 0 011.287-3.20085 8.49076 8.49076 0 001.29276-5.2411c-.28072-2.91169-1.60428-7.06289-6.05886-11.26858 0 0-6.5115-8.09621-14.95795-6.05658S296.55134 155.43637 297.19971 166.04522z"/><path d="M313.98485 174.80615c-1.491.40267-2.97329.73172-4.42905 1.14582-.732.192-1.446.431-2.1516.687a7.03717 7.03717 0 00-1.99058 1.06076 4.671 4.671 0 011.81382-1.45455 11.23076 11.23076 0 012.17739-.8334 16.66984 16.66984 0 012.27106-.46165A14.2818 14.2818 0 01313.98485 174.80615zM299.73963 177.74987a3.77439 3.77439 0 011.76279.24432 2.20992 2.20992 0 011.26793 1.33983 4.27854 4.27854 0 01.02962 1.8413l-.27162 1.73869a11.76148 11.76148 0 00-.21528 3.40271 1.79271 1.79271 0 00.78742 1.33706 2.884 2.884 0 001.65654.27895 2.76358 2.76358 0 01-1.78369-.035 2.13135 2.13135 0 01-1.08282-1.49286 9.70873 9.70873 0 01.08419-3.58045l.30119-1.727a4.49 4.49 0 00.08258-1.64094C302.12536 178.3814 300.87122 177.85882 299.73963 177.74987z"/><path d="M297.19971 166.04517l1.37083 6.7199c.25909 1.10947.50923 2.21962.80486 3.31443.16136.54209.32154 1.0858.52755 1.60735a6.68369 6.68369 0 00.72016 1.48617l-.03238-.03047a9.04387 9.04387 0 011.17138 1.10127 5.05215 5.05215 0 01.4855.64389 1.14369 1.14369 0 01.20829.76495 1.17387 1.17387 0 00-.30476-.69859 4.89961 4.89961 0 00-.54-.56148 13.8688 13.8688 0 00-1.22895-.96347.16052.16052 0 01-.03267-.0307 9.61967 9.61967 0 01-1.4703-3.17316 30.84347 30.84347 0 01-.82028-3.35424A48.52767 48.52767 0 01297.19971 166.04517zM307.321 184.10761a1.57771 1.57771 0 01.85952 1.246 1.21212 1.21212 0 01-.24176.76657 1.9326 1.9326 0 01-.26757.28484c-.10706.07364-.219.137-.32449.20255a1.84638 1.84638 0 00.55386-1.24092 1.46478 1.46478 0 00-.18327-.64619A3.75277 3.75277 0 00307.321 184.10761zM328.94546 173.73027c-.02632.55629-.06961 1.09815-.06784 1.63009a6.39929 6.39929 0 00.04812.77731 2.48945 2.48945 0 00.06966.35985 1.24846 1.24846 0 01.05961.50943 1.30441 1.30441 0 01-.56023.83213 2.81862 2.81862 0 01-.79137.3931 3.38752 3.38752 0 01-1.67362.1618 6.54412 6.54412 0 001.506-.55952c.43985-.23705.92836-.56771.96339-.90218.03687-.10168-.095-.45242-.1009-.74464a3.70114 3.70114 0 01.051-.86052A5.51216 5.51216 0 01328.94546 173.73027zM330.24691 175.30831c.57073.62138 1.14508 1.22476 1.74071 1.80078a20.52716 20.52716 0 001.86448 1.61717 11.17883 11.17883 0 002.07141 1.28546 7.02373 7.02373 0 002.37634.61146 4.963 4.963 0 01-2.53566-.21028 7.95188 7.95188 0 01-2.25237-1.2408 11.32522 11.32522 0 01-1.83824-1.76974A11.19145 11.19145 0 01330.24691 175.30831zM328.02591 199.97674a4.97129 4.97129 0 01-2.13336-.242 8.57682 8.57682 0 01-1.95934-.90887 10.76944 10.76944 0 01-1.70459-1.30936l-.75054-.76334c-.22135-.28253-.455-.55017-.661-.84159l1.68734 1.27277c.57439.3961 1.1271.81505 1.72311 1.16405a16.23219 16.23219 0 001.81654.98424A8.77084 8.77084 0 00328.02591 199.97674zM309.27557 179.66729a.84225.84225 0 000-1.6835.84225.84225 0 000 1.6835zM283.06655 425.9516c-1.94759-2.76091-6.14549-1.95717-9.01015-.96439a10.20361 10.20361 0 01-8.67939-.78481c-5.57824-3.44138-5.26617-9.58687-4.79343-12.32862a6.10087 6.10087 0 00-.52952-3.83863c-2.92156-5.52157-9.90841 1.2857-9.90841 1.2857a9.5236 9.5236 0 012.79853 2.30687 10.28989 10.28989 0 011.86253 3.16739 10.60759 10.60759 0 01.69016 3.62119 8.19032 8.19032 0 01-.69016 3.56441 22.70765 22.70765 0 00-1.37088-6.66555 20.10918 20.10918 0 00-1.42765-3.03489c-.539-.99279-1.21968-1.91932-1.86253-2.95942 0 0-3.432-.67124-8.2444-1.63563a13.875 13.875 0 012.07051 2.90263 17.77287 17.77287 0 011.40873 3.29019 11.052 11.052 0 01.52 3.62119 5.59334 5.59334 0 01-.34994 1.8436 3.09183 3.09183 0 01-1.1345 1.46551 5.279 5.279 0 00.34993-3.26179 25.67737 25.67737 0 00-.78481-3.2431c-.65231-2.16514-1.46551-4.30166-2.08-6.61823-2.59055-.51982-5.5877-1.125-8.66045-1.74919a11.30019 11.30019 0 012.34472 2.79876 14.10932 14.10932 0 011.50325 3.35643 10.69021 10.69021 0 01.38768 3.7156 6.65782 6.65782 0 01-1.31421 3.45084 14.92187 14.92187 0 00.17958-3.46031 19.78034 19.78034 0 00-.66177-3.29965 34.11437 34.11437 0 00-1.11558-3.26179L233.2408 405.936c-5.14337-1.0588-10.50406-2.16491-14.55066-3.06306-10.93905-2.411-11.752 2.42967-11.752 2.42967a4.845 4.845 0 011.50314-1.10611 2.54252 2.54252 0 011.90038-.16066 3.14716 3.14716 0 011.53176 1.19106 4.91868 4.91868 0 01.89814 1.72081 6.35318 6.35318 0 01.2553 1.93824 13.9004 13.9004 0 01-.2553 1.88145 10.00059 10.00059 0 00.17958 3.555 13.31676 13.31676 0 003.63066 6.08871 28.18762 28.18762 0 005.805 4.264l.03785.01893c4.075 1.79651 8.06481 3.74422 12.01678 5.80526 1.97609 1.0588 3.9238 2.15568 5.843 3.3375l1.41819.90761 1.38991.98332c.45381.34023.89815.71833 1.34249 1.07772.41594.38756.87921.851 1.2386 1.22915a33.70547 33.70547 0 005.02981 4.141 64.89686 64.89686 0 005.635 3.47946 60.7587 60.7587 0 005.97527 2.86454 22.96951 22.96951 0 003.13888 1.03064 9.16251 9.16251 0 003.28072.331 14.15324 14.15324 0 01-6.58037-.90783 45.5914 45.5914 0 01-6.20228-2.5811 63.60937 63.60937 0 01-5.85235-3.30911 30.07313 30.07313 0 01-5.37962-4.1694 24.59812 24.59812 0 00-5.18111-3.886c-1.88146-1.1345-3.8197-2.20276-5.77687-3.24286-3.9141-2.061-7.91339-4.00875-11.9316-5.87128l-.01892-.00946-.03786-.01893a27.62953 27.62953 0 01-6.032-4.6516 14.20474 14.20474 0 01-3.65893-6.72233 10.63421 10.63421 0 01-.04732-3.86678 18.12493 18.12493 0 00.34994-1.79652 5.56735 5.56735 0 00-.123-1.76789 4.68532 4.68532 0 00-.71856-1.61693 2.88685 2.88685 0 00-1.29517-1.15321 3.38965 3.38965 0 00-3.30911.99255c-7.93255 11.38339 11.44941 23.18273 27.62635 29.75387 16.17671 6.56144 19.84522 12.97146 19.84522 12.97146 5.76729 8.689 11.03345 8.13106 14.702 5.71063a11.14723 11.14723 0 004.72731-8.66981c.293-4.33952 4.33952-8.71712 4.33952-8.71712S286.18662 430.37629 283.06655 425.9516zm-15.51505 11.147c-.77522 2.05158-3.63053.66178-8.46183 1.0588-4.15993.34993-6.43864-4.3206-5.67276-6.3724.77534-2.061 4.56665-2.53377 8.47129-1.06826C265.78361 432.18227 268.32685 435.03758 267.5515 437.09862z"/><path d="M260.58049 411.87371a.84045.84045 0 00.73354-.09833 3.6678 3.6678 0 00.64461-.43234 13.67871 13.67871 0 001.16815-1.04771c.73425-.75619 1.45694-1.52691 2.15048-2.33134 1.41407-1.58415 2.77093-3.22648 4.29861-4.75685a30.08127 30.08127 0 01-3.72812 5.26305 20.46913 20.46913 0 01-2.32583 2.26763 8.80533 8.80533 0 01-1.36438.91938 3.91846 3.91846 0 01-.77537.30746A.83415.83415 0 01260.58049 411.87371zM278.88461 424.06153a61.96659 61.96659 0 013.68979-5.08093c1.30207-1.63332 2.62259-3.23271 4.01623-4.81618a27.65769 27.65769 0 01-3.41841 5.28983A36.49109 36.49109 0 01278.88461 424.06153zM561.08879 326.31878c-7.7622-15.638-6.2683-22.87064-6.2683-22.87064 1.43712-10.32437-2.87424-13.39711-7.22334-14.01157a11.12881 11.12881 0 00-9.28437 3.3562c-3.09168 3.05382-9.0292 3.659-9.0292 3.659s-9.95574-.84159-10.55138 4.54772c-.36875 3.36566 3.29965 5.53081 6.10775 6.69371a10.21286 10.21286 0 015.98473 6.33454c1.90027 6.278-2.411 10.67429-4.576 12.414a6.04452 6.04452 0 00-2.14621 3.22394c-1.475 6.07948 8.26332 5.59706 8.26332 5.59706a9.73517 9.73517 0 01-.56737-3.57364 10.53358 10.53358 0 01.70909-3.61173 10.4207 10.4207 0 011.88146-3.16715 8.13391 8.13391 0 012.88371-2.21246 22.56751 22.56751 0 00-3.40364 5.89966 21.65222 21.65222 0 00-.936 3.21448c-.25529 1.11581-.35928 2.25032-.56725 3.45084 0 0 2.12729 2.77983 5.09593 6.68447a13.43452 13.43452 0 01.37832-3.536 16.32383 16.32383 0 011.125-3.40352 11.08291 11.08291 0 012.00437-3.054 5.54325 5.54325 0 011.48432-1.15321 3.10255 3.10255 0 011.82479-.34047 5.25535 5.25535 0 00-2.42032 2.21247 24.99517 24.99517 0 00-1.56961 2.94971c-.94546 2.05181-1.749 4.18833-2.82692 6.32508v.00947c1.59789 2.10836 3.43215 4.53826 5.32307 7.03417a11.41152 11.41152 0 01.10387-3.63042 13.79735 13.79735 0 011.09688-3.51709 10.89878 10.89878 0 012.165-3.04435 6.71619 6.71619 0 013.28084-1.71134 14.274 14.274 0 00-2.4299 2.47721 18.99958 18.99958 0 00-1.69241 2.91187c-.51059 1.01171-.89815 2.08943-1.32356 3.17685l-1.20075 3.33727v.0097c3.15781 4.19779 6.43853 8.58463 8.87778 11.9316 6.58983 9.06705 10.40953 5.96591 10.40953 5.96591C575.55439 363.63634 568.8511 341.95675 561.08879 326.31878zm-16.29028-10.04067c-1.93813 1.02094-5.09593-1.12505-7.04364-4.81248-1.94771-3.68721-1.95717-7.50691-.01893-8.53731 1.93824-1.02118 3.15793 1.90962 7.04364 4.81225C548.11709 310.23671 546.73675 315.24747 544.79851 316.27811zm19.52391 40.32382a10.72967 10.72967 0 01-2.52454 2.931 14.3442 14.3442 0 00-1.45593 1.11558 5.58666 5.58666 0 00-1.07784 1.39927 4.56716 4.56716 0 00-.539 1.68294 2.88651 2.88651 0 00.20809 1.72081 3.328 3.328 0 003.05382 1.44658 4.36382 4.36382 0 01-1.77747-.16088 2.54182 2.54182 0 01-1.53164-1.144 3.258 3.258 0 01-.35928-1.90039 5.2074 5.2074 0 01.47273-1.88146 6.10261 6.10261 0 011.09677-1.6167 12.93056 12.93056 0 011.42765-1.24784 9.70947 9.70947 0 002.22181-2.77983 13.08709 13.08709 0 001.31421-6.96793 27.57021 27.57021 0 00-1.54111-7.10042q-2.7796-6.05571-5.14325-12.291c-.77534-2.09889-1.51283-4.21695-2.16514-6.36316l-.46327-1.62594-.38767-1.65456c-.12292-.5579-.19863-1.13473-.293-1.70187-.05678-.56737-.09463-1.21968-.11356-1.73973a33.32747 33.32747 0 00-1.03052-6.42919 59.5 59.5 0 00-1.90974-6.33454 60.867 60.867 0 00-2.57174-6.10764 23.34506 23.34506 0 00-1.67348-2.86478 9.40858 9.40858 0 00-2.24074-2.42043 14.24076 14.24076 0 014.33028 5.04884 46.27573 46.27573 0 012.94026 6.0414 62.13138 62.13138 0 012.18407 6.35347 29.62757 29.62757 0 011.267 6.69394 24.78494 24.78494 0 001.30463 6.33454c.66189 2.0989 1.39926 4.18833 2.18407 6.25907 1.56938 4.141 3.27126 8.24439 5.04873 12.30045v.01893l.01892.04709a27.8662 27.8662 0 011.43712 7.47874A14.24181 14.24181 0 01564.32242 356.60193z"/><path d="M527.3548 327.80154a47.96316 47.96316 0 00-4.86825-.20151q-2.42682.01419-4.847.16735c-1.61531.084-3.22645.24421-4.84335.38963-1.61529.16319-3.2334.33677-4.86984.48173.77878-.25968 1.57126-.46627 2.36152-.69317.79871-.181 1.59688-.37878 2.40528-.51912a41.16387 41.16387 0 014.88958-.60223 35.69984 35.69984 0 014.93389.04155A19.90839 19.90839 0 01527.3548 327.80154zM520.61161 305.18618a46.97556 46.97556 0 01-6.11413 1.45074c-2.05743.35755-4.10388.66455-6.21515.85659a17.07831 17.07831 0 012.97549-1.08995c1.01317-.29084 2.04222-.50367 3.07372-.69687A30.75416 30.75416 0 01520.61161 305.18618zM403.24414 192.07282a3.23875 3.23875 0 012.54643.904 2.57011 2.57011 0 01.65641 1.27151 4.78789 4.78789 0 01.07831 1.4205l-.01316-.11853a1.31832 1.31832 0 00.66827.38144 3.90163 3.90163 0 00.93813.132c.64427.03878 1.318-.05355 2.01188-.07086.69132-.02286 1.36715-.0973 2.07218-.07745a5.562 5.562 0 011.08159.09684 2.25374 2.25374 0 011.10346.48727 1.37207 1.37207 0 01.42778 1.26711 1.82706 1.82706 0 01-.681 1.04668 6.641 6.641 0 01-1.89868 1.01944 12.37375 12.37375 0 01-2.0042.58515c-.33819.07317-.68229.13838-1.02267.189-.17159.02355-.33851.05436-.52672.07317l-.26666.01512-.14372.00035-.0865-.0067-.06356-.01258c-.0296-.022-.06584.01282-.165-.12822l.0146.0247c.01483.06613.16613.09071.144.08333a.05646.05646 0 00.03027-.00416l-.02958.00981a1.00514 1.00514 0 00-.0972.04709l-.21124.1243-.42662.28034-.84947.59022-1.68006 1.223c.49345-.48854 1.00458-.95712 1.52379-1.41854l.79026-.68347c.13388-.11288.27238-.2201.41676-.32478l.22684-.15384a1.45511 1.45511 0 01.13209-.07433l.09158-.03635a.45091.45091 0 01.0945-.01281.276.276 0 01.20341.10364l.01489.025c-.08708-.12234-.10058-.08183-.11039-.09787-.00672-.00231-.00574-.0015-.00052-.00173l.04135-.00023.11221-.00773.24357-.02989.48283-.10007c.33158-.07155.6546-.15488.979-.24733a19.54718 19.54718 0 001.89944-.65046 6.033 6.033 0 001.67986-.938 1.14686 1.14686 0 00.42353-.62946.62214.62214 0 00-.205-.58595 3.14511 3.14511 0 00-1.71209-.41549c-.66068-.03358-1.3492.02574-2.023.03382-.67113.0008-1.36193.083-2.08251.0262a4.34232 4.34232 0 01-1.07426-.2231 1.60573 1.60573 0 01-.97241-.75976.15514.15514 0 01-.01662-.09118l.0034-.02769a4.3297 4.3297 0 00.013-1.27405 2.49849 2.49849 0 00-.47553-1.149A3.2479 3.2479 0 00403.24414 192.07282zM464.15716 156.58721q9.72683-3.06491 19.54353-5.7801c6.538-1.83564 13.10341-3.56406 19.6742-5.27171 6.5796-1.67348 13.16508-3.32388 19.778-4.86776q9.90933-2.35459 19.91-4.35372-9.726 3.068-19.54284 5.78288c-6.53807 1.83506-13.10353 3.56348-19.6749 5.26893-6.58017 1.67118-13.16568 3.3217-19.77868 4.865Q474.1568 154.58411 464.15716 156.58721zM436.99489 182.5777q9.72687-3.06491 19.54356-5.78022c6.53793-1.83552 13.10338-3.564 19.67417-5.27159 6.5796-1.67349 13.16511-3.32389 19.778-4.86776q9.90933-2.35477 19.91-4.35383-9.726 3.06819-19.54284 5.783c-6.53807 1.83506-13.10353 3.56348-19.6749 5.26894-6.58017 1.67117-13.16565 3.32158-19.77868 4.865Q446.99458 180.57459 436.99489 182.5777zM486.67871 184.79812c3.56144-1.441 7.17484-2.70285 10.80653-3.90164 3.62843-1.21022 7.28768-2.31414 10.95287-3.39752 3.67509-1.04945 7.35675-2.07605 11.06912-2.997 3.70908-.93219 7.43688-1.8 11.217-2.48726-3.56074 1.44324-7.17388 2.70608-10.80572 3.90441-3.62858 1.20964-7.28779 2.31357-10.95368 3.39475-3.67569 1.04726-7.35739 2.07386-11.0699 2.99427C494.18576 183.23982 490.45825 184.10853 486.67871 184.79812zM148.97349 155.20377s-3.86647-27.46862-17.42442-45.91787 79.90524-14.13405 79.90524-14.13405l14.35623 32.20934S157.61531 129.99819 148.97349 155.20377z"/><path fill="#020202" d="M319.27022,244.50828c.26926-1.14916.555-2.29348.84518-3.43653.2927-1.14235.56417-2.29082.87431-3.428l1.82134-6.83486.00152-.00566a.48314.48314,0,0,1,.48349-.35812c1.78469.06347,3.44157.262,5.1496.46165,1.69363.2134,3.38157.45161,5.06789.69963,1.683.26718,3.36557.53413,5.04025.84517,1.67785.29222,3.34473.64515,5.01576.97131l.02185.00427a.44249.44249,0,0,1,.35281.4912c-.45982,3.45753-1.07925,6.87306-1.71024,10.29-.6402,3.41333-1.29792,6.826-2.17366,10.19475-.42334,1.68791-.89746,3.36636-1.46887,5.02a26.11748,26.11748,0,0,1-2.13995,4.83268,10.56514,10.56514,0,0,1-1.66594,2.16387,4.81533,4.81533,0,0,1-2.58813,1.30024,17.74738,17.74738,0,0,1-5.35671-.51959,132.98452,132.98452,0,0,1-19.83328-6.56848q-4.82184-1.98135-9.59045-4.07615c-3.16309-1.435-6.32652-2.86339-9.43971-4.40692l.0615.01651-3.25984-.5092a.0669.0669,0,0,1-.05582-.07641.06843.06843,0,0,1,.07258-.05632l3.28256.24721a.16407.16407,0,0,1,.04783.01085l.014.00566c3.2212,1.28408,6.4297,2.599,9.66315,3.84786q4.82515,1.93322,9.69028,3.7538,4.85277,1.84786,9.74683,3.55944c3.26508,1.12008,6.54234,2.23024,9.87523,3.01447a17.95835,17.95835,0,0,0,4.944.61376,3.68493,3.68493,0,0,0,2.00212-.94477,10.01993,10.01993,0,0,0,1.55874-1.89946,37.10577,37.10577,0,0,0,3.9398-9.46454,95.30832,95.30832,0,0,0,2.24052-10.13508c.55654-3.41726.93708-6.86971,1.237-10.30728l.37448.49524-5.04505-.748-5.0368-.77627c-1.67718-.26372-3.35464-.52582-5.034-.75815-1.66593-.22667-3.38594-.48335-5.00036-.58272l.48476-.36355-2.1401,6.74184c-.35012,1.12562-.73888,2.23993-1.10643,3.36036-.37,1.11973-.74456,2.2382-1.13555,3.35181a.067.067,0,0,1-.12848-.03751Z"/><path fill="#020202" d="M284.85424,251.5802l.00047.00935-.13476.00207a.05821.05821,0,0,0,.013.03613.06771.06771,0,0,0,.0718.02216c.02047-.00831.02117-.012.02117-.012l-.0572.01915c-2.0398-.18477-4.07585-.40763-6.10823-.709a44.3329,44.3329,0,0,1-6.04526-1.33728,5.89585,5.89585,0,0,1-2.83164-1.67487,5.2296,5.2296,0,0,1-1.192-3.13438,11.00959,11.00959,0,0,1,.35028-3.2109,15.63065,15.63065,0,0,1,1.07051-3.00639l.127.70933c-1.97165-1.83852-3.92595-3.69575-5.84462-5.59117l.05559.04467a5.59206,5.59206,0,0,1-1.8389-2.178,1.74243,1.74243,0,0,1,.11481-1.625,1.97464,1.97464,0,0,1,1.3225-.85417,2.21528,2.21528,0,0,1,1.49165.27941l1.11627.70414c.73638.4688,1.4846.91788,2.23262,1.367,1.49537.89883,3.01626,1.75727,4.56656,2.54762a18.07939,18.07939,0,0,0,2.37074,1.02278,1.55841,1.55841,0,0,0,.56865.094,4.056,4.056,0,0,0,.614-.05794.77572.77572,0,0,0,.23585-.07836c.06043-.04432.03547-.02585.04322-.04813a1.1947,1.1947,0,0,0-.24341-.44007,19.147,19.147,0,0,0-1.75306-1.891c-.31232-.29614-.63432-.578-.96747-.85405-.1681-.1415-.33479-.27018-.518-.44561a.69726.69726,0,0,1-.25956-.528.64261.64261,0,0,1,.393-.52432,3.65607,3.65607,0,0,1,1.44358-.2531,10.50716,10.50716,0,0,1,1.36058.07317,12.948,12.948,0,0,1,7.29712,3.32873,17.219,17.219,0,0,1,3.50309,4.11412l-.336-.27145c3.545,1.17352,7.11542,2.28587,10.67475,3.41264,3.56222,1.09146,7.13222,2.27178,10.70533,3.12711a10.565,10.565,0,0,0,1.28962.23186,5.33572,5.33572,0,0,0,1.23545-.15569,18.84351,18.84351,0,0,1,2.87039-.299,14.05242,14.05242,0,0,1,5.68436.955,19.05734,19.05734,0,0,1,4.88747,2.93483c1.46283,1.19117,2.83005,2.46025,4.29643,3.61726a.067.067,0,0,1,.01214.094.068.068,0,0,1-.08919.01546c-1.58224-1.01413-3.03389-2.21419-4.56045-3.272a18.865,18.865,0,0,0-4.844-2.56493,14.14324,14.14324,0,0,0-5.3423-.67216,17.70942,17.70942,0,0,0-2.69262.37059l-.66736.13872a3.81347,3.81347,0,0,1-.39628.07064,2.18317,2.18317,0,0,1-.47.0105,11.50647,11.50647,0,0,1-1.47812-.21121c-1.8784-.36689-3.67735-.89121-5.48786-1.39614-1.80643-.51117-3.59713-1.06653-5.38268-1.63425-3.5737-1.12977-7.11024-2.35569-10.6509-3.58322l-.00712-.00242a.61648.61648,0,0,1-.32918-.26926,17.224,17.224,0,0,0-3.17349-3.91457,13.00663,13.00663,0,0,0-4.22225-2.70112,12.64035,12.64035,0,0,0-2.4392-.66478,9.75114,9.75114,0,0,0-1.25038-.1288,3.11435,3.11435,0,0,0-1.13076.12246c-.06832.019-.05628.0734-.02216-.05921-.02913-.13676-.00987-.02978.05758.02239.12647.13272.29817.28138.45858.42749.32764.29534.65081.60315.95942.92145a24.627,24.627,0,0,1,1.73646,2.01534,1.44822,1.44822,0,0,1,.3297.71971.53526.53526,0,0,1-.28872.47493,1.22572,1.22572,0,0,1-.383.1273,4.48933,4.48933,0,0,1-.69.0562,2.01694,2.01694,0,0,1-.71556-.12453,18.381,18.381,0,0,1-2.42192-1.08707c-1.56312-.79681-3.08777-1.65444-4.62026-2.49926l-2.28918-1.28362-1.13571-.63627a1.53373,1.53373,0,0,0-1.04049-.142,1.22133,1.22133,0,0,0-.79294.56668.9227.9227,0,0,0,.009.88821,4.79764,4.79764,0,0,0,1.609,1.6893l.04342.03393.01246.011c2.027,1.77909,4.0183,3.59661,5.99229,5.4326a.59978.59978,0,0,1,.13635.68994l-.00927.01962a12.82,12.82,0,0,0-1.36126,5.613,4.14213,4.14213,0,0,0,.86509,2.52592,5.20809,5.20809,0,0,0,2.33255,1.46228,43.63468,43.63468,0,0,0,5.85643,1.59512c1.98545.46546,4.00351.79081,6.00912,1.20145l-.05688.01915a.08132.08132,0,0,1,.032-.01985.07276.07276,0,0,1,.07786.02355.06979.06979,0,0,1,.01492.04247.06778.06778,0,1,1-.13444.01743l-.00032-.01535.00047-.00935a.067.067,0,0,1,.13385,0Z"/></svg>